<svg xmlns="http://www.w3.org/2000/svg" viewBox="0 0 500 500"><g id="freepik--background-complete--inject-438"><rect x="402.07" y="376.37" width="35.16" height="11.19" transform="translate(839.3 763.94) rotate(180)" style="fill:#ebebeb"></rect><rect x="188.39" y="202.29" width="35.16" height="11.19" transform="translate(411.93 415.77) rotate(180)" style="fill:#ebebeb"></rect><path d="M421.68,401.67l17.7-.29,8.75-.12,8.71,0-.46.45,0-11.19.5.5-17.58-.06-8.79-.09-8.79-.11.24-.24Zm0,0-.23-11.19v-.23h.24l8.79-.11,8.79-.09,17.58-.07h.5v.5l0,11.19v.46h-.45l-8.87,0-8.83-.12Z" style="fill:#ebebeb"></path><path d="M254.5,114.4l17.7-.29L281,114l8.71,0-.46.45,0-11.19.5.5-17.58-.07-8.79-.08-8.79-.11.24-.24Zm0,0-.24-11.19V103h.24l8.79-.1,8.79-.09,17.58-.07h.5v.5l-.05,11.19v.46h-.45l-8.87,0-8.83-.12Z" style="fill:#ebebeb"></path><path d="M274.11,128.51l17.7-.29,8.75-.12,8.71,0-.46.45,0-11.19.5.5-17.58-.07-8.79-.08-8.79-.11.24-.24Zm0,0-.24-11.19v-.23h.24l8.79-.1,8.79-.09,17.58-.07h.5v.5l0,11.19V129h-.45l-8.87-.05-8.83-.12Z" style="fill:#ebebeb"></path><rect x="293.65" y="103.21" width="35.16" height="11.19" transform="translate(622.45 217.61) rotate(180)" style="fill:#ebebeb"></rect><rect x="43.16" y="390.48" width="35.16" height="11.19" transform="translate(121.48 792.16) rotate(180)" style="fill:#ebebeb"></rect><rect x="62.77" y="44.93" width="35.16" height="11.19" transform="translate(160.7 101.06) rotate(180)" style="fill:#ebebeb"></rect><path d="M43.16,70.23l17.7-.29,8.75-.12,8.71,0-.46.45,0-11.19.5.5-17.58-.07L52,59.39l-8.79-.11L43.4,59Zm0,0L42.92,59v-.23h.24L52,58.7l8.79-.09,17.58-.07h.5V59l0,11.19v.46h-.45l-8.87,0-8.83-.12Z" style="fill:#ebebeb"></path><path d="M402.07,56.12l17.7-.29,8.75-.12,8.71,0-.46.45,0-11.19.5.5-17.58-.07-8.79-.08-8.79-.11.24-.24Zm0,0-.24-11.19V44.7h.24l8.79-.11,8.79-.09,17.58-.07h.5v.5l-.05,11.19v.46h-.45l-8.87,0-8.83-.12Z" style="fill:#ebebeb"></path><rect x="382.9" y="133.84" width="80.39" height="52.49" style="fill:#dbdbdb"></rect><rect x="382.9" y="189.41" width="80.39" height="52.49" style="fill:#ebebeb"></rect><rect x="390.85" y="199.5" width="7.82" height="7.82" style="fill:#fff"></rect><rect x="400.29" y="199.5" width="7.82" height="7.82" style="fill:#dbdbdb"></rect><rect x="409.74" y="199.5" width="7.82" height="7.82" style="fill:#fff"></rect><rect x="419.18" y="199.5" width="7.82" height="7.82" style="fill:#fff"></rect><rect x="428.63" y="199.5" width="7.82" height="7.82" style="fill:#fff"></rect><rect x="438.07" y="199.5" width="7.82" height="7.82" style="fill:#fff"></rect><rect x="447.52" y="199.5" width="7.82" height="7.82" style="fill:#fff"></rect><rect x="390.85" y="209.01" width="7.82" height="7.82" style="fill:#fff"></rect><rect x="400.29" y="209.01" width="7.82" height="7.82" style="fill:#fff"></rect><rect x="409.74" y="209.01" width="7.82" height="7.82" style="fill:#fff"></rect><rect x="419.18" y="209.01" width="7.82" height="7.82" style="fill:#fff"></rect><rect x="428.63" y="209.01" width="7.82" height="7.82" style="fill:#dbdbdb"></rect><rect x="438.07" y="209.01" width="7.82" height="7.82" style="fill:#fff"></rect><rect x="447.52" y="209.01" width="7.82" height="7.82" style="fill:#fff"></rect><rect x="390.85" y="218.52" width="7.82" height="7.82" style="fill:#fff"></rect><rect x="400.29" y="218.52" width="7.82" height="7.82" style="fill:#fff"></rect><rect x="409.74" y="218.52" width="7.82" height="7.82" style="fill:#fff"></rect><rect x="419.18" y="218.52" width="7.82" height="7.82" style="fill:#fff"></rect><rect x="428.63" y="218.52" width="7.82" height="7.82" style="fill:#fff"></rect><rect x="438.07" y="218.52" width="7.82" height="7.82" style="fill:#fff"></rect><rect x="447.52" y="218.52" width="7.82" height="7.82" style="fill:#fff"></rect><rect x="390.85" y="228.03" width="7.82" height="7.82" style="fill:#fff"></rect><rect x="400.29" y="228.03" width="7.82" height="7.82" style="fill:#fff"></rect><rect x="409.74" y="228.03" width="7.82" height="7.82" style="fill:#fff"></rect><rect x="419.18" y="228.03" width="7.82" height="7.82" style="fill:#fff"></rect><rect x="428.63" y="228.03" width="7.82" height="7.82" style="fill:#fff"></rect><rect x="438.07" y="228.03" width="7.82" height="7.82" style="fill:#fff"></rect><rect x="447.52" y="228.03" width="7.82" height="7.82" style="fill:#fff"></rect><rect x="386.04" y="183.84" width="3.05" height="8.07" style="fill:#c7c7c7"></rect><rect x="393.15" y="183.84" width="3.05" height="8.07" style="fill:#c7c7c7"></rect><rect x="400.25" y="183.84" width="3.05" height="8.07" style="fill:#c7c7c7"></rect><rect x="407.36" y="183.84" width="3.05" height="8.07" style="fill:#c7c7c7"></rect><rect x="414.46" y="183.84" width="3.05" height="8.07" style="fill:#c7c7c7"></rect><rect x="421.57" y="183.84" width="3.05" height="8.07" style="fill:#c7c7c7"></rect><rect x="428.67" y="183.84" width="3.05" height="8.07" style="fill:#c7c7c7"></rect><rect x="435.78" y="183.84" width="3.05" height="8.07" style="fill:#c7c7c7"></rect><rect x="442.88" y="183.84" width="3.05" height="8.07" style="fill:#c7c7c7"></rect><rect x="449.98" y="183.84" width="3.05" height="8.07" style="fill:#c7c7c7"></rect><rect x="457.09" y="183.84" width="3.05" height="8.07" style="fill:#c7c7c7"></rect><circle cx="163.22" cy="88.02" r="43.09" transform="translate(-18.79 52.54) rotate(-17.31)" style="fill:#ebebeb"></circle><circle cx="165.19" cy="88.98" r="41.11" transform="translate(8.3 191.88) rotate(-61.57)" style="fill:#dbdbdb"></circle><circle cx="165.19" cy="88.98" r="38.52" transform="matrix(0.95, -0.31, 0.31, 0.95, -19.5, 55.9)" style="fill:#fff"></circle><path d="M202.83,80.8c-17.53,10.63-46.36,28.06-62.47,37.62a38.56,38.56,0,0,1-10.53-14.15l53.29-49.39A38.57,38.57,0,0,1,202.83,80.8Z" style="fill:#ebebeb;opacity:0.5"></path><path d="M203.68,90.32a38.25,38.25,0,0,1-2.55,12.52l-48,22.72A38,38,0,0,1,147,123C161.54,114.56,188.06,99.31,203.68,90.32Z" style="fill:#ebebeb;opacity:0.5"></path><rect x="164.82" y="53.26" width="0.74" height="5.84" style="fill:#c7c7c7"></rect><rect x="148.42" y="57.65" width="0.75" height="5.84" transform="translate(-10.35 82.5) rotate(-30)" style="fill:#c7c7c7"></rect><rect x="136.41" y="69.66" width="0.74" height="5.84" transform="translate(5.53 154.74) rotate(-60)" style="fill:#c7c7c7"></rect><rect x="129.47" y="88.61" width="5.84" height="0.74" style="fill:#c7c7c7"></rect><rect x="133.87" y="105.01" width="5.84" height="0.74" transform="translate(-34.37 82.53) rotate(-30.01)" style="fill:#c7c7c7"></rect><rect x="145.87" y="117.01" width="5.84" height="0.74" transform="translate(-27.21 187.68) rotate(-60.04)" style="fill:#c7c7c7"></rect><rect x="164.82" y="118.86" width="0.74" height="5.84" style="fill:#c7c7c7"></rect><rect x="181.22" y="114.47" width="0.74" height="5.84" transform="translate(-34.36 106.52) rotate(-30)" style="fill:#c7c7c7"></rect><rect x="193.23" y="102.46" width="0.74" height="5.84" transform="translate(5.53 220.33) rotate(-59.99)" style="fill:#c7c7c7"></rect><rect x="195.07" y="88.61" width="5.84" height="0.74" style="fill:#c7c7c7"></rect><rect x="190.68" y="72.21" width="5.84" height="0.74" transform="translate(-10.34 106.57) rotate(-30.01)" style="fill:#c7c7c7"></rect><rect x="178.67" y="60.2" width="5.84" height="0.74" transform="translate(38.4 187.62) rotate(-60.03)" style="fill:#c7c7c7"></rect><polygon points="165.75 55.9 167.02 91.58 163.36 91.53 164.76 55.89 165.75 55.9" style="fill:#c7c7c7"></polygon><polygon points="187.97 76.54 163.97 91.86 162.23 88.65 187.5 75.67 187.97 76.54" style="fill:#a6a6a6"></polygon><path d="M166.44,89a1.25,1.25,0,1,1-1.25-1.25A1.25,1.25,0,0,1,166.44,89Z" style="fill:#c7c7c7"></path></g><g id="freepik--Table--inject-438"><polygon points="36.71 454.35 90.03 454.1 143.35 454.01 250 453.85 356.64 454.01 409.97 454.1 463.29 454.35 409.97 454.59 356.64 454.68 250 454.84 143.35 454.68 90.03 454.59 36.71 454.35" style="fill:#263238"></polygon></g><g id="freepik--character-3--inject-438"><path d="M282.46,346.66l27.42,107.69H389c-8.88-31.27-30.7-107.69-30.7-107.69Z" style="fill:#263238"></path><path d="M247.29,423.84s-1.77,17.72-3,30.51h75.47c.47-11,1.07-25,1.1-25l.09,0c.33-.17,1.57-.8,3.3-1.66l11.91-5.92.49-.24,6-3s.12-.56.29-1.47c.43-2.21,1.28-6.74,2.35-12.48,1.33-7.1,3-16,4.59-24.75,3-16.32,5.83-31.81,5.9-32.82v-.3l-102.09,0S236.34,390.46,247.29,423.84Z" style="fill:#263238"></path><path d="M311.14,433.38c3.48-2.42,7.24-4.45,10.93-6.53s7.6-4.17,11.52-6a187.76,187.76,0,0,1,23.83-8.65c.2-.06.34.27.14.36-7.77,3.33-15.3,7.16-23,10.59-3.89,1.72-7.8,3.37-11.7,5.09s-7.68,3.65-11.61,5.29A.09.09,0,0,1,311.14,433.38Z" style="fill:#37474f"></path><path d="M332.4,395.35c.09-3.81.36-7.61.55-11.42.45-9,.79-18,1.63-27a.28.28,0,0,1,.56,0c.11,6.95-.16,13.92-.3,20.87-.07,3.47-.17,7-.27,10.43a97.34,97.34,0,0,0-.06,10c.18,2.51.73,7.38,4,7.68,3.08.29,4.77-3,5.54-5.48,1.95-6.18,2.65-12.87,3.28-19.3.37-3.81,1.57-19.32,1.36-23.18,0-.24.37-.23.38,0,.22,3.93.43,19.71.18,23.62-.24,3.75-.56,7.52-1.12,11.24a40.42,40.42,0,0,1-2.42,9.95c-1.13,2.63-2.49,5-5.44,5.54a6.06,6.06,0,0,1-1.1.12c0,.8-.15,1.61-.2,2.41-.09,1.26-.25,2.51-.42,3.76a26.46,26.46,0,0,1-.77,3.64,13.32,13.32,0,0,1-1.27,3.48.19.19,0,0,1-.36-.1,17.3,17.3,0,0,1,.3-3.59c.17-1.22.34-2.46.59-3.67s.47-2.38.71-3.57c.17-.8.28-1.62.43-2.43a5.87,5.87,0,0,1-4.37-3.44C332.43,402,332.32,398.53,332.4,395.35Z" style="fill:#37474f"></path><path d="M262.34,390.37c5.45.38,10.83,1.08,16.3.43a28.36,28.36,0,0,0,14.19-5.56c9-7,12.93-18.39,15.37-29.09a.19.19,0,0,1,.38.06c-1,9.28-3,18.88-9,26.35a28.8,28.8,0,0,1-9.56,7.88,28,28,0,0,1-12.64,2.6,61.33,61.33,0,0,1-15.12-2A.32.32,0,0,1,262.34,390.37Z" style="fill:#37474f"></path><path d="M318.86,454.35h1.36c.23-3.68.41-7.37.53-11.05.07-2.44.09-4.89.12-7.32,0-2.24.13-4.49.09-6.71v-.19c0-.15,0-.3,0-.44a.13.13,0,0,0-.25,0q0,.3-.06.6c-.31,2.57-.46,5.17-.69,7.75-.42,4.92-.71,9.84-1,14.78C318.94,452.62,318.9,453.48,318.86,454.35Z" style="fill:#37474f"></path><path d="M360.56,138.52s-19-10.34-35.84,0-24.89,35.83-22,57.21-14.8,35.51-16.71,51.39,8.67,23.24,12.22,31.58c4.07,9.54-12.22,43.44,29.24,51.31,51.84,9.83,71.67-21.59,66.38-47.58-2.59-12.73-9.85-21.77-9.72-32.07s7.52-18.5,3.67-31.56-8.95-11.28-11.06-31.78S378.92,142,360.56,138.52Z" style="fill:#263238"></path><path d="M328.3,138a63.62,63.62,0,0,0-24.51,29.07,57.92,57.92,0,0,0-4.39,18.61c-.53,8.35.76,16.17-2.39,24.28-5.05,13-15.16,23.82-14.68,38.29a35.4,35.4,0,0,0,6.24,18.87c4.48,6.53,10.86,11.69,14.61,18.69.15.29.61,0,.47-.25-3.13-6.22-8.2-11-12.42-16.54a36,36,0,0,1-7.66-22.74c.4-13.75,10.37-24.32,15-36.85,2.11-5.67,2.24-11.17,2.06-17.11a61.32,61.32,0,0,1,2.69-20.69c4.24-13.34,13.27-24.87,25.11-33.45C328.56,138.13,328.42,138,328.3,138Z" style="fill:#263238"></path><path d="M306.49,294.2a0,0,0,0,0,0,.09A0,0,0,0,0,306.49,294.2Z" style="fill:#263238"></path><path d="M393.67,278.75c-1.31-6.15-4.57-11.72-5.87-17.85-1.57-7.37.33-14.72,1.75-22,2-10.33,1.81-20.09-2.82-29.82-3-6.29-6.64-12.17-8.86-18.79a76.93,76.93,0,0,1-4-22.21c0-.16-.27-.16-.27,0a69.8,69.8,0,0,0,6.94,31.67c2.82,5.81,6.34,11.27,8,17.54,1.95,7.53,1.19,14.81-.15,22.37-.89,5-2,10.14-1.92,15.28,0,5.33,1.75,10.06,3.66,15.05a52.19,52.19,0,0,1-.23,39c-.08.22.32.38.41.16A49.63,49.63,0,0,0,393.67,278.75Z" style="fill:#263238"></path><path d="M284.62,245.29c.46-11.33,8.46-19,13.32-28.84,3.67-7.42,6.17-15.34,4.95-23.51,0-.13-.26-.1-.25,0,.62,11.83-4.42,22.56-11.06,32.47-4.42,6.58-8.07,12.91-8.11,20.84,0,7.77,3.1,14.31,7.59,20.74,3.2,4.58,6.35,8.85,7.7,14.26s1.05,11,.78,16.51c0,.29.46.28.48,0,.76-8.48.89-16.71-3.44-24.46C291.26,263.82,284.15,256.79,284.62,245.29Z" style="fill:#263238"></path><path d="M395.66,270.71a68.72,68.72,0,0,0-6.61-11c-4.39-6.36-5.13-11.53-3.66-19.09a.15.15,0,0,0-.29-.08c-2.11,6.23-2.61,11.41,1.14,17.14,5.23,8,10.35,15.3,11.42,24.86,1.91,17-7.81,32.77-23.56,41.36-.23.12,0,.43.2.32,13.22-6.42,22.49-18,24.42-31.73A40,40,0,0,0,395.66,270.71Z" style="fill:#263238"></path><path d="M335.76,263.31c3.23,19.17,20.5,79.47,36.56,90.35,10.05,6.81,54.77,24.54,65.77,14.78,4.79-4.25,12.13-49.1,5.28-49.14s-46.25-8.49-50.77-10.95S361,256.23,349.73,242.9C330.32,219.93,334,253,335.76,263.31Z" style="fill:#eb9481"></path><path d="M345.62,316.05,384,278.47S361.14,246,345.73,231.86c-8.64-7.94-14.92-1.33-14.87,9.28C331,278.27,345.62,316.05,345.62,316.05Z" style="fill:#720455"></path><path d="M345.62,316.05,384,278.47S361.14,246,345.73,231.86c-8.64-7.94-14.92-1.33-14.87,9.28C331,278.27,345.62,316.05,345.62,316.05Z" style="fill:#720455"></path><path d="M381.69,280.71l-36.07,35.34s-14.58-37.78-14.76-74.9a17.46,17.46,0,0,1,2.39-9.67Z" style="opacity:0.1"></path><path d="M376.74,273.74c-6.38,5.3-23.27,20.16-33,31.25-.06.06.17.31.24.26,9.47-8,27.19-25.31,33.09-31.13C377.19,274,376.86,273.64,376.74,273.74Z" style="fill:#263238"></path><path d="M363,368.44l-2.18,12.34h68.42a8.38,8.38,0,0,0,7.91-6.72l1-5.62Z" style="fill:#dbdbdb"></path><path d="M355.24,374.06l1-5.62h13.44l-1,5.62a8.37,8.37,0,0,1-7.91,6.72,5.56,5.56,0,0,1-4.4-2A5.79,5.79,0,0,1,355.24,374.06Z" style="fill:#ebebeb"></path><path d="M385.18,280.46,367.49,380.78h61.7a8.38,8.38,0,0,0,7.91-6.72l17.69-100.32h-61.7a8,8,0,0,0-5.1,2A8.25,8.25,0,0,0,385.18,280.46Z" style="fill:#dbdbdb"></path><path d="M393.09,273.74,389.52,294h75.14L467,280.46a5.48,5.48,0,0,0-5.53-6.72Z" style="fill:#ebebeb"></path><path d="M385.18,280.46,382.8,294h13.44l2.38-13.55a5.48,5.48,0,0,0-5.53-6.72,8,8,0,0,0-5.1,2A8.25,8.25,0,0,0,385.18,280.46Z" style="fill:#dbdbdb"></path><path d="M445.72,312.54c2.51,7.16,9.75,16.49,9.83,22.12a6.47,6.47,0,0,1-4.29,6.42s5.26,3.36,4.48,8.49c-.4,2.64-5,4.32-5,4.32s4.1,2.87,3.13,7.39c-.78,3.6-5.23,4.75-5.23,4.75s2.64,4.59.68,8c-4,6.92-35.41,3.58-39-8.51-1.69-5.64,5.94-4.4,5.94-4.4s-10.55-4.43-10-10.92,10.34-4.3,10.34-4.3-10.18-4.37-9-11.06c1.27-7,10.71-3.07,10.71-3.07s-6.48-5.48-4.38-10.38c3.48-8.09,15.6,3.84,22.68,2.93l5-11Z" style="fill:#eb9481"></path><path d="M451,323.11c-1.78-7,7.42-14.4,6.67-21.33-1-9.37-12.27-1.49-16,11.57L440.56,324Z" style="fill:#eb9481"></path><path d="M448,366.31a.09.09,0,0,1,0,.17c-10.6,1.42-22.69-.27-32.17-5.37-.31-.17-.17-.75.21-.63C426.82,363.87,436.65,366,448,366.31Z" style="fill:#263238"></path><path d="M450.92,354c.13,0,.12.21,0,.22-10.93,1.41-24.49-.87-34.72-8-.35-.24-.42-.81,0-.56C423.36,349.84,440.71,353.76,450.92,354Z" style="fill:#263238"></path><path d="M417.76,331c10.08,6.49,21.22,9.09,33.05,10.13.15,0,.12.23,0,.25-5.93,1.07-13.4-.37-19.12-2a31.6,31.6,0,0,1-14.15-8C417.38,331.22,417.54,330.89,417.76,331Z" style="fill:#263238"></path><path d="M368.2,373.18l-.87-50.07s11.42-13.87,9.26-28.92c-2.37-16.49-32.06-58.28-34.56-60.63-10-9.45-20.62-12-30.19-7-30.76,15.9-63,131.44-67.14,146.65Z" style="fill:#720455"></path><path d="M344.48,319.31A119.33,119.33,0,0,0,327,322.19c-2.85.73-5.66,1.59-8.46,2.52-1.39.46-2.79.87-4.2,1.27a18.81,18.81,0,0,1-4.52.86c-.13,0-.13.2,0,.21a33.19,33.19,0,0,0,4.35-.08,30.68,30.68,0,0,0,4.15-.79c2.9-.71,5.77-1.56,8.67-2.3,5.84-1.51,11.68-3,17.61-4.09A.24.24,0,0,0,344.48,319.31Z" style="fill:#263238"></path><path d="M359.07,324.54a130.22,130.22,0,0,0-14.64-.7c-2.45,0-4.88.2-7.31.43-1.17.12-2.33.25-3.49.4s-2.53.5-3.8.64c-.14,0-.14.22,0,.21,1.21-.1,2.44,0,3.65,0l3.65-.09c2.44-.06,4.88-.1,7.32-.18,4.88-.16,9.74-.28,14.63-.28C359.34,324.94,359.32,324.57,359.07,324.54Z" style="fill:#263238"></path><path d="M292.61,239.34c-32.9,41.94-40.62,73.2-33.76,87.3,9,18.43,25.65,20,28.35,18.43,19.38-11.1,28.69-70,27.61-96.88C313.29,210.33,300.75,229,292.61,239.34Z" style="fill:#eb9481"></path><path d="M255.39,291.08l53.46,4.41S318.39,256.94,319,236c.34-11.74-6.51-11.56-14.49-4.57C276.6,255.88,255.39,291.08,255.39,291.08Z" style="fill:#720455"></path><path d="M307.68,286.91c-8.17-1.36-30.43-4.41-45.16-4.5-.09,0-.13.33,0,.35,12.24,1.92,36.88,4,45.14,4.65C307.77,287.42,307.83,286.93,307.68,286.91Z" style="fill:#263238"></path><path d="M302.34,295q3.27,0,6.55.14l-.43.31c1-5.89,2.2-11.73,3.53-17.54s2.78-11.6,4.51-17.33c-.82,5.92-1.93,11.78-3.14,17.63s-2.58,11.65-4.12,17.42l-.09.35-.33,0Q305.56,295.49,302.34,295Z" style="fill:#263238"></path><path d="M314.11,272.21a16.7,16.7,0,0,1,1.47-3.5,23.6,23.6,0,0,1,2.1-3.18,7,7,0,0,1-.45,1.87,13.5,13.5,0,0,1-.79,1.73A12.51,12.51,0,0,1,314.11,272.21Z" style="fill:#263238"></path><path d="M315.73,228.75c0,2.55,8.3,20.75,19.49,22.57,3.65.58,7.75-19.2,7.75-19.2l.63-1.39,8.89-19.49-20.73-20.47-3-2.78s-2.08,5.49-4.6,12.36c-.12.32-.24.63-.36,1s-.3.75-.43,1.12c-.39,1-.78,2.06-1.16,3.11-.28.79-.56,1.57-.83,2.41s-.56,1.67-.85,2.51C317.79,218.85,315.72,227.67,315.73,228.75Z" style="fill:#eb9481"></path><path d="M324.12,200.35a42.93,42.93,0,0,0,19.48,30.38l8.89-19.49-20.73-20.47-3-2.78S326.64,193.48,324.12,200.35Z" style="fill:#263238"></path><path d="M388.83,191.52c-7.31,36.87-30.19,36.68-38.13,35.1-7.21-1.43-31.57-7.23-28.11-44.65s22.9-45.69,39.56-43.29S396.14,154.66,388.83,191.52Z" style="fill:#eb9481"></path><path d="M325.57,186.77c7.83,1.13,11-16.71,11-16.71s13.59-.39,20.47-8.51c0,0-4.88,7.2-10.56,9.59-1,.4,26.29,1.89,32.06-18.27,0,0,.74,20.91,12.32,27,.56.29,1.12-18.76-2.13-23.72a39.75,39.75,0,0,0-6.63-7.82,38.85,38.85,0,0,0-27-11.69c-16.85-.19-30.36,15.44-32.73,22.35C317.73,172.57,321.86,186.23,325.57,186.77Z" style="fill:#263238"></path><path d="M347.27,171.71c14.72,1.66,27.83-5.86,31.41-20.62.08-.37.65-.27.64.1-.41,15.48-18.55,24-32.23,20.76C346.76,171.87,346.92,171.67,347.27,171.71Z" style="fill:#263238"></path><path d="M325.73,185.94c8.57-2.82,11.08-10.59,12.95-18.59.06-.24.47-.18.43.07-1.12,8-4.1,17.45-13.19,19.24A.37.37,0,0,1,325.73,185.94Z" style="fill:#263238"></path><path d="M379.16,149.8c0-.09.15-.06.15,0,.46,8.66-1.41,22.85,9,26.66a.22.22,0,0,1-.13.43C377.87,174.16,376.66,158.29,379.16,149.8Z" style="fill:#263238"></path><path d="M324,158.84l-3.2,2.41,6.65,13.09,7.06-5.52Zm4.4,11.81-4.93-8.43.73-.58,6.72,7.11Z" style="fill:#720455"></path><path d="M327.3,153.38l-2.06,3.45,11.1,9.6,4.46-7.76Zm8.52,9.28-7.74-5.95.46-.81,8.9,4Z" style="fill:#720455"></path><path d="M385.2,184.78a23.78,23.78,0,0,1-2.35-1.07,4.17,4.17,0,0,1-2.19-1.55,1.33,1.33,0,0,1,.36-1.58,3.27,3.27,0,0,1,3.34,0,4.85,4.85,0,0,1,2.59,2.33A1.42,1.42,0,0,1,385.2,184.78Z" style="fill:#263238"></path><path d="M360.22,179.12a24.68,24.68,0,0,0,2.58,0,4.11,4.11,0,0,0,2.63-.47,1.32,1.32,0,0,0,.35-1.58,3.28,3.28,0,0,0-3-1.46,4.8,4.8,0,0,0-3.33,1A1.41,1.41,0,0,0,360.22,179.12Z" style="fill:#263238"></path><path d="M364,189.36c0-.1-.22.08-.24.18-.41,2.51-1.31,5.32-3.73,5.69-.08,0-.1.14,0,.15C362.85,195.54,364,191.8,364,189.36Z" style="fill:#263238"></path><path d="M362.29,186.31c-4-1.1-5.87,6.88-2.21,7.9S365.6,187.23,362.29,186.31Z" style="fill:#263238"></path><path d="M360.62,186.36c-.81.28-1.68.92-2.54.8s-1.53-1.15-2-2.11c-.05-.1-.13,0-.16.06-.39,1.53-.18,3.24,1.41,3.86,1.44.56,2.84-.53,3.59-2C361.09,186.72,360.94,186.24,360.62,186.36Z" style="fill:#263238"></path><path d="M377.87,192.13c0-.09.16.17.14.27-.69,2.45-1.07,5.37,1,6.74.06,0,0,.16-.06.13C376.28,198.21,376.82,194.34,377.87,192.13Z" style="fill:#263238"></path><path d="M380.71,190.1c4.05.68,2.39,8.72-1.36,8.09S377.32,189.53,380.71,190.1Z" style="fill:#263238"></path><path d="M382.28,191c.55.55,1,1.46,1.76,1.66s1.7-.49,2.44-1.21c.07-.07.12,0,.1.11-.27,1.55-1.11,3.05-2.65,3s-2.12-1.54-2.17-3.14C381.75,191.14,382.06,190.75,382.28,191Z" style="fill:#263238"></path><path d="M358.85,209.59c.42.74.78,1.7,1.64,2a6.77,6.77,0,0,0,2.8.14.09.09,0,0,1,.07.16,3.44,3.44,0,0,1-3.48.43,2.72,2.72,0,0,1-1.3-2.72C358.58,209.48,358.79,209.48,358.85,209.59Z" style="fill:#263238"></path><path d="M371.25,203s-.33,3.82-.72,5.57c0,.16-.48.15-1.08,0,0,0-.05,0-.07,0a8.51,8.51,0,0,1-7.36-4.93.19.19,0,0,1,.31-.19,12.84,12.84,0,0,0,7.09,3.9c.24-.46.35-6.56.63-6.52a15.63,15.63,0,0,1,3.76,1.8c.92-7.94.56-16,1.59-23.85a.25.25,0,0,1,.49,0c1,8.38.11,17.54-.62,25.76C375.18,205.57,371.89,203.44,371.25,203Z" style="fill:#263238"></path><path d="M354.31,200.07A11.9,11.9,0,1,1,370,189.79h0a11.88,11.88,0,0,1-15.72,10.28Zm7.22-21a10.47,10.47,0,0,0-2.51-.52,10.28,10.28,0,1,0,2.51.52Z" style="fill:#37474f"></path><path d="M381,205.73c-4.31-1.48-6.7-7.23-5.38-13.29a14.24,14.24,0,0,1,4.23-7.6,7.41,7.41,0,0,1,12.4,2.7,14.17,14.17,0,0,1,.68,8.66c-1.39,6.41-6.41,10.78-11.18,9.74A4.91,4.91,0,0,1,381,205.73Zm6.05-21.32a3.83,3.83,0,0,0-.58-.16,6.33,6.33,0,0,0-5.57,1.78,12.63,12.63,0,0,0-3.72,6.74c-1.21,5.56,1,10.77,4.91,11.62s8.08-3,9.29-8.53a12.69,12.69,0,0,0-.59-7.68A6.57,6.57,0,0,0,387.07,184.41Z" style="fill:#37474f"></path><path d="M369.35,191.05l-.74-1.41c2.09-1.09,6.6-2.2,8.77,1.46l-1.36.81C374.07,188.63,369.54,191,369.35,191.05Z" style="fill:#37474f"></path><path d="M316.9,182.78l-1.23-1c.48-.57,4.73-5.58,8.32-5.39,3.36.19,23.77,6.67,24.63,7l-.48,1.51c-5.85-1.86-21.64-6.73-24.23-6.87C321.53,177.84,318.05,181.4,316.9,182.78Z" style="fill:#37474f"></path><path d="M328.65,186s-4.6-13.55-10.53-12.21-4.73,19.37.61,23.34a6.36,6.36,0,0,0,9.13-.91Z" style="fill:#eb9481"></path><path d="M318.59,179c-.09,0-.15.09-.08.15,3.71,2.92,4.8,7.47,5.17,12-.8-1.92-2.25-3.26-4.77-2.38-.13,0-.07.25,0,.26a3.9,3.9,0,0,1,3.75,2.51,19.2,19.2,0,0,1,1,3.91c.09.43.82.43.81,0a.34.34,0,0,1,0-.1C326.18,189.9,324.19,181.19,318.59,179Z" style="fill:#263238"></path><path d="M287.2,345.07c18.27-5.45,26.45-39.33,43.73-95,2.39-7.69-52.27-15.7-55.24-7.61-3.75,10.19-8.79,46.43-9.32,49.49C261.9,317.84,277.64,347.92,287.2,345.07Z" style="fill:#eb9481"></path><path d="M275.69,242.49c-1.14-15.26-1.39-36.84,3-42.31,4.58-5.74,21.51-25.27,26.91-28.54s29.27-18.75,34.64-17c4.29,1.39,1.93,12.42-9.41,19.9-10,6.57-14.71,11.72-17.53,13.73s-8.3,14-5.25,18.06c1.81,2.41,10.27,3.88,14.65.65s3.51-13.08,8.07-18.79,14.45-7.26,15.58-4.75-1.83,4.44-4.9,14.48c-2,6.45.78,20.32-4.38,31.8-2.59,5.77-6.12,20.4-6.12,20.4Z" style="fill:#eb9481"></path><path d="M335,183a9.81,9.81,0,0,0,4.37-3.23,3.77,3.77,0,0,0,.45-3.46,1.91,1.91,0,0,0-.73-1.08c-.11,0,0-.2.08-.11a6.68,6.68,0,0,0,.57.49,3.25,3.25,0,0,1,.4.5,3.46,3.46,0,0,1,.47,1.16,4.12,4.12,0,0,1-.44,2.67,6.75,6.75,0,0,1-5.13,3.2C335,183.13,335,183,335,183Z" style="fill:#263238"></path><path d="M330.93,250.1c1-4.46,2.12-8.88,3.26-13.31.31-1.1.6-2.2,1-3.31l1.22-3.2a55.84,55.84,0,0,0,2.06-6.47c2.31-8.7-.48-18.09,2.61-27.26.91-2.15,1.94-4.17,2.9-6.24.47-1,.94-2.05,1.33-3.09a7.51,7.51,0,0,0,.63-3,1,1,0,0,0-.19-.47,1.88,1.88,0,0,0-.46-.42,3.76,3.76,0,0,0-1.35-.51,10,10,0,0,0-3.19,0,16.59,16.59,0,0,0-6.13,2.26,13.38,13.38,0,0,0-2.55,2.06,10.68,10.68,0,0,0-1,1.28,14.36,14.36,0,0,0-.9,1.39,28.49,28.49,0,0,0-2.51,6.24c-.66,2.18-1.13,4.41-1.82,6.61a8.57,8.57,0,0,1-1.65,3,6.63,6.63,0,0,1-2.73,2.05,6.52,6.52,0,0,0,2.55-2.19,8.2,8.2,0,0,0,1.45-3c.57-2.18.93-4.45,1.48-6.68a28.66,28.66,0,0,1,2.4-6.51,15.36,15.36,0,0,1,.91-1.5,9.85,9.85,0,0,1,1.08-1.42A14.52,14.52,0,0,1,334,184.1a16.61,16.61,0,0,1,6.57-2.57,10.85,10.85,0,0,1,3.64,0,5.11,5.11,0,0,1,1.83.68,3.23,3.23,0,0,1,.8.73,2.21,2.21,0,0,1,.45,1.09,8.24,8.24,0,0,1-.66,3.67c-.4,1.11-.87,2.16-1.34,3.21-.94,2.09-2,4.14-2.81,6.21a22.25,22.25,0,0,0-1.35,6.46c-.2,2.24-.25,4.51-.27,6.78s0,4.57-.14,6.88a29.38,29.38,0,0,1-.36,3.47c-.21,1.14-.45,2.28-.77,3.39a55.89,55.89,0,0,1-2.29,6.52L336,233.78c-.4,1-.72,2.14-1.06,3.22C333.52,241.35,332.24,245.73,330.93,250.1Z" style="fill:#263238"></path><path d="M281.18,196.27c3.12-8.41,9.79-20.43,20.74-27.58,7.41-4.84,38.1,2.71,38.43,8.19s-4.41,6.52-11.61,7.2c-2.63.25-17.21-1.7-18.9,1.64-2.44,4.79-5.24,13.86-5.24,13.86l-16.28-6.79Z" style="fill:#eb9481"></path><path d="M339.22,175c-4.66-5-12.86-6.36-20.88-7.14-.12,0-.15.19,0,.2,2,.2,15.48,3.19,20.83,7C339.21,175.11,339.26,175,339.22,175Z" style="fill:#263238"></path><path d="M281.35,194.16a52.74,52.74,0,0,1,20.57-25.47c7.41-4.84,33.11,7.74,33.44,13.22s-6.39,7.38-14.49,6.38c-2.61-.33-12-4.31-13.71-1-2.44,4.8-5.86,11.68-5.86,11.68l-14.87-4.05Z" style="fill:#eb9481"></path><path d="M302.13,196.7c.5-1.33.68-1.79,1.21-3.12s1.07-2.62,1.69-3.9a10.78,10.78,0,0,1,1.93-3.16,5.43,5.43,0,0,1,3.19-1.37c2.66-.32,5.38.83,7.87,1.62,2.78.89,8.41,2.09,12.25.83a8.06,8.06,0,0,0,2.92-1.51,5,5,0,0,0,1.54-1.89c1.08-3.25-1.76-6.1-4.44-8-5-3.48-11.14-5.46-17-6.92-1.44-.35-2.88-.67-4.33-1a12,12,0,0,0-5.06-.33c-2.73.57-6.61,4.3-7.82,5.44-.09.09-.21-.07-.12-.15,1.45-1.41,4.88-5.71,9.34-6.44a14.15,14.15,0,0,1,4.91.56c1.68.33,3.35.72,5,1.14a64.55,64.55,0,0,1,9.47,3.16,26.78,26.78,0,0,1,8.27,5,7.89,7.89,0,0,1,2.17,7.76c-.78,2.26-3.24,3.3-4.39,3.71a13.29,13.29,0,0,1-3.48.71,56.21,56.21,0,0,1-8-.58c-2.59-.44-5.09-1.58-7.71-1.8a4.73,4.73,0,0,0-3.52,1,12.65,12.65,0,0,0-2.14,3,38.3,38.3,0,0,0-3.31,6.23C302.32,197.34,301.92,197.26,302.13,196.7Z" style="fill:#263238"></path><path d="M277,204.61c1-3.89.37-16.25,2.21-21.3s11.31-23.18,17.42-23.8c7.68-.78,2.78,14.42.05,20.84s0,15.73,0,15.73l-12.85-2.76Z" style="fill:#eb9481"></path><path d="M300.13,169.93a69.08,69.08,0,0,0-2.64,6.44,46.55,46.55,0,0,0-2.17,6.24,20,20,0,0,0-.13,6.5c.13,1.06.32,2.11.54,3.16s.59,2.27.81,3.42c0,.12.21.1.19,0a50.83,50.83,0,0,1-.53-6.4,27.65,27.65,0,0,1,.55-6.6c.91-4.3,2.72-8.36,3.66-12.66C300.45,169.84,300.2,169.79,300.13,169.93Z" style="fill:#263238"></path><path d="M297.05,197.64a20.69,20.69,0,0,0,2.41,4.79,49.64,49.64,0,0,0,3.16,4.31,51.39,51.39,0,0,0,3.55,4c.61.64,1.25,1.23,1.91,1.81l2,1.77a33.75,33.75,0,0,1,7.31,8.29,28.69,28.69,0,0,1,3.7,10.32,42.79,42.79,0,0,0-5-9.49,41.66,41.66,0,0,0-7.34-7.62,41.75,41.75,0,0,1-4.05-3.75,38.74,38.74,0,0,1-3.46-4.32,32.94,32.94,0,0,1-2.76-4.78A15,15,0,0,1,297.05,197.64Z" style="fill:#263238"></path><path d="M269,323.92c-2-5-6.45-19.13-2.92-31.9,0-.14.22-.11.2,0-1.52,10.72,1.32,26.71,2.91,31.79A.1.1,0,0,1,269,323.92Z" style="fill:#263238"></path></g><g id="freepik--character-1--inject-438"><path d="M166.53,346.66,139.11,454.35H60c8.88-31.27,30.7-107.69,30.7-107.69Z" style="fill:#263238"></path><path d="M201.7,423.84s1.77,17.72,3,30.51H129.22c-.47-11-1.07-25-1.1-25l-.09,0c-.33-.17-1.57-.8-3.31-1.66l-11.9-5.92-.49-.24-6-3s-.12-.56-.29-1.47c-.43-2.21-1.28-6.74-2.35-12.48-1.33-7.1-3-16-4.59-24.75-3-16.32-5.83-31.81-5.9-32.82,0-.13,0-.21,0-.26v0l102.1,0S212.65,390.46,201.7,423.84Z" style="fill:#263238"></path><path d="M137.85,433.38c-3.48-2.42-7.24-4.45-10.93-6.53s-7.6-4.17-11.52-6a187.76,187.76,0,0,0-23.83-8.65c-.2-.06-.34.27-.14.36,7.77,3.33,15.3,7.16,23,10.59,3.88,1.72,7.8,3.37,11.7,5.09s7.68,3.65,11.6,5.29C137.87,433.57,137.94,433.44,137.85,433.38Z" style="fill:#37474f"></path><path d="M116.59,395.35c-.09-3.81-.36-7.61-.55-11.42-.45-9-.8-18-1.63-27a.28.28,0,0,0-.56,0c-.11,6.95.16,13.92.3,20.87.07,3.47.17,7,.27,10.43a97.34,97.34,0,0,1,.06,10c-.18,2.51-.73,7.38-4,7.68-3.08.29-4.77-3-5.54-5.48-2-6.18-2.65-12.87-3.28-19.3-.38-3.81-1.57-19.32-1.36-23.18,0-.24-.37-.23-.39,0-.21,3.93-.43,19.71-.17,23.62.24,3.75.56,7.52,1.12,11.24a40.42,40.42,0,0,0,2.42,9.95c1.13,2.63,2.49,5,5.44,5.54a6,6,0,0,0,1.1.12c0,.8.14,1.61.2,2.41.09,1.26.24,2.51.41,3.76a29.79,29.79,0,0,0,.77,3.64,13.71,13.71,0,0,0,1.28,3.48.19.19,0,0,0,.36-.1,17.3,17.3,0,0,0-.3-3.59c-.17-1.22-.34-2.46-.59-3.67s-.47-2.38-.71-3.57c-.17-.8-.28-1.62-.43-2.43a5.83,5.83,0,0,0,4.36-3.44C116.56,402,116.67,398.53,116.59,395.35Z" style="fill:#37474f"></path><path d="M186.65,390.37c-5.45.38-10.83,1.08-16.3.43a28.36,28.36,0,0,1-14.19-5.56c-9-7-12.93-18.39-15.37-29.09a.19.19,0,0,0-.38.06c1,9.28,3,18.88,9,26.35a28.8,28.8,0,0,0,9.56,7.88,28,28,0,0,0,12.63,2.6,61.35,61.35,0,0,0,15.13-2A.32.32,0,0,0,186.65,390.37Z" style="fill:#37474f"></path><path d="M130.13,454.35h-1.36c-.23-3.68-.41-7.37-.53-11.05-.08-2.44-.09-4.89-.12-7.32,0-2.24-.13-4.49-.09-6.71v-.19c0-.15,0-.3,0-.44a.13.13,0,0,1,.25,0c0,.2,0,.4.06.6.31,2.57.46,5.17.69,7.75.42,4.92.71,9.84,1,14.78C130.05,452.62,130.09,453.48,130.13,454.35Z" style="fill:#37474f"></path><path d="M129.53,132.58s19-10.34,35.85,0,24.89,35.82,22,57.2,14.79,35.51,16.71,51.4-8.67,23.23-12.22,31.57c-4.07,9.54,12.22,43.45-29.24,51.31-51.84,9.83-71.68-21.59-66.39-47.58,2.59-12.73,9.86-21.77,9.72-32.07s-7.52-18.5-3.66-31.56,9-11.28,11.06-31.78S111.18,136.06,129.53,132.58Z" style="fill:#263238"></path><path d="M161.79,132.09a63.48,63.48,0,0,1,24.52,29.07,58.06,58.06,0,0,1,4.39,18.6c.53,8.35-.77,16.17,2.39,24.28,5,13,15.15,23.83,14.67,38.29a35.39,35.39,0,0,1-6.23,18.87c-4.48,6.54-10.86,11.69-14.61,18.69-.16.29-.61,0-.47-.25,3.13-6.22,8.2-11,12.41-16.54a36,36,0,0,0,7.67-22.74c-.4-13.75-10.37-24.32-15-36.85-2.11-5.67-2.25-11.17-2.06-17.11a61.32,61.32,0,0,0-2.69-20.69c-4.24-13.34-13.27-24.87-25.11-33.45C161.54,132.18,161.68,132,161.79,132.09Z" style="fill:#263238"></path><path d="M183.61,288.25a.05.05,0,0,1,0,.1A.05.05,0,1,1,183.61,288.25Z" style="fill:#263238"></path><path d="M96.43,272.8c1.3-6.15,4.57-11.72,5.87-17.84,1.56-7.38-.33-14.73-1.76-22-2-10.33-1.8-20.09,2.83-29.82,3-6.29,6.63-12.17,8.86-18.79a76.57,76.57,0,0,0,4-22.2.14.14,0,0,1,.27,0,69.92,69.92,0,0,1-6.93,31.67c-2.82,5.81-6.34,11.27-8,17.54-2,7.54-1.19,14.82.14,22.38.89,5,2,10.14,1.93,15.27,0,5.34-1.75,10.07-3.67,15a52.18,52.18,0,0,0,.23,39c.09.22-.31.38-.41.16A49.63,49.63,0,0,1,96.43,272.8Z" style="fill:#263238"></path><path d="M205.48,239.34c-.46-11.33-8.47-19-13.33-28.83-3.67-7.42-6.16-15.34-5-23.52,0-.13.27-.1.26,0-.62,11.84,4.41,22.56,11.06,32.47,4.42,6.59,8.07,12.92,8.11,20.85,0,7.76-3.11,14.3-7.6,20.73-3.19,4.58-6.34,8.85-7.7,14.26s-1,11.05-.77,16.51c0,.29-.46.28-.49,0-.76-8.48-.88-16.71,3.45-24.45C198.84,257.87,206,250.85,205.48,239.34Z" style="fill:#263238"></path><path d="M94.44,264.76a69.32,69.32,0,0,1,6.6-11c4.4-6.37,5.13-11.54,3.67-19.1a.15.15,0,0,1,.29-.07c2.11,6.22,2.61,11.4-1.14,17.14-5.23,8-10.35,15.29-11.43,24.85-1.9,17,7.82,32.78,23.57,41.36.22.12,0,.43-.2.32-13.22-6.42-22.5-18-24.43-31.73A40,40,0,0,1,94.44,264.76Z" style="fill:#263238"></path><path d="M122.84,236.92c-20.45,8.68-83.06,43.89-81.79,62.8,1.21,18.14,21.2,22.73,41.15,8.95,14.28-9.86,34.44-34.38,47.16-52.26C139.67,241.91,141.74,228.89,122.84,236.92Z" style="fill:#eb9481"></path><path d="M99.35,305.08,77.58,256s33.21-21.7,52.77-29.18c11-4.19,14.35,4.27,10.39,14.11C126.86,275.36,99.35,305.08,99.35,305.08Z" style="fill:#720455"></path><path d="M99.35,305.08,77.58,256s33.21-21.7,52.77-29.18c11-4.19,14.35,4.27,10.39,14.11C126.86,275.36,99.35,305.08,99.35,305.08Z" style="fill:#720455"></path><path d="M79.67,260.68l19.68,44.4s27.51-29.72,41.39-64.16a17.46,17.46,0,0,0,1.35-9.87Z" style="opacity:0.1"></path><path d="M86.06,254.26c4,7.28,14.18,27.33,19.11,41.22,0,.09-.27.24-.31.16C99,284.7,88.94,262.08,85.61,254.48,85.55,254.34,86,254.13,86.06,254.26Z" style="fill:#263238"></path><path d="M69.08,296.8C57.2,308,43.41,310,41.05,299.72c-3-12.9,10-71.26,20.41-93.73,3-6.54,46.69,16.34,43.87,23.51C101.94,238.11,89.34,277.72,69.08,296.8Z" style="fill:#eb9481"></path><path d="M61.31,208.54c.36-5.78,4.37-32.11,7.12-39.18s12.15-26.87,17.78-25.31,3.35,7.57,3.35,7.57,5.29-7.73,10.82-5.65S102,157.3,102,157.3s6-7.54,11.38-5.07-.08,11.11-.08,11.11,5.17-7.15,8.74-3.25c4.28,4.69-6.75,16.79-9.2,24.83-.56,1.83-8.65,37.82-8.65,37.82Z" style="fill:#eb9481"></path><path d="M113.79,162.59c-8.09,8.92-10.09,14.23-12.14,25.91,0,.22-.39.22-.37,0,1-11.62,2.51-18.63,12.1-26.29C113.85,161.8,114.17,162.17,113.79,162.59Z" style="fill:#263238"></path><path d="M102.69,156.6c-7.59,10-9.81,15.73-12.85,27.81,0,.17-.34.11-.31-.06,2-12.1,3.7-19.06,12.6-28.06C102.53,155.89,103,156.14,102.69,156.6Z" style="fill:#263238"></path><path d="M89.42,152.24c-6.65,10.21-9.35,16.39-10.8,28.49a.23.23,0,0,1-.45,0c.28-12.48,3.59-20.22,10.92-28.63C89.59,151.49,89.84,151.59,89.42,152.24Z" style="fill:#263238"></path><path d="M118.32,156.79l-16.55,56.34a2.85,2.85,0,0,1-3.42,2.08L72.81,208a2.8,2.8,0,0,1-1.76-3.55L87.6,148.06A2.85,2.85,0,0,1,91,146l25.54,7.27A2.78,2.78,0,0,1,118.32,156.79Z" style="fill:#37474f"></path><path d="M118.13,153.33l-25.54-7.27a2.86,2.86,0,0,0-3.42,2.09L72.63,204.49A2.79,2.79,0,0,0,74.38,208l25.55,7.27a2.86,2.86,0,0,0,3.42-2.09l16.54-56.34A2.78,2.78,0,0,0,118.13,153.33ZM102.24,211a2.64,2.64,0,0,1-3.1,2l-22.86-6.49a2.61,2.61,0,0,1-1.53-3.35l15.41-52.46c.89-3,2-2.87,3.25-2.51l4.58,1.3c.26.08.39.46.27.87l-.05.17c-.28.94.2,1.08.79,1.25l10.59,3c.59.17,1.07.3,1.35-.64l0-.17c.12-.41.43-.67.7-.59l4.57,1.3c1.28.36,2.2,1.06,1.39,3.83Z" style="fill:#263238"></path><path d="M106.08,152.56l-2.88-.82a.2.2,0,0,1-.13-.24h0a.19.19,0,0,1,.24-.14l2.89.82a.19.19,0,0,1,.12.24h0A.2.2,0,0,1,106.08,152.56Z" style="fill:#fff"></path><line x1="75.73" y1="199.88" x2="75.64" y2="199.85" style="fill:none"></line><path d="M117.65,158.56,102.24,211a2.64,2.64,0,0,1-3.1,2l-22.86-6.49a2.61,2.61,0,0,1-1.53-3.35l15.41-52.46c.89-3,2-2.87,3.25-2.51l4.58,1.3c.26.08.39.46.27.87l-.05.17c-.28.94.2,1.08.79,1.25l10.59,3c.59.17,1.07.3,1.35-.64l0-.17c.12-.41.43-.67.7-.59l4.57,1.3C117.54,155.09,118.46,155.79,117.65,158.56Z" style="fill:#fff"></path><g id="freepik--u5Zjqx--inject-438"><path d="M96.85,150.49l-.06,0,0,0a.57.57,0,0,0-.37-.31.58.58,0,0,0-.48.07l0,0,0-.06h0l.08,0,.15,0a.61.61,0,0,1,.19,0h.09l.08,0,0,0a1.19,1.19,0,0,1,.15.09l.09.08a1,1,0,0,1,.08.11l0,.06Z" style="fill:#a6a6a6"></path><path d="M96,150.49l0-.1a.52.52,0,0,1,.32-.07.5.5,0,0,1,.39.27l-.09.06a.4.4,0,0,0-.25-.21A.43.43,0,0,0,96,150.49Z" style="fill:#a6a6a6"></path><path d="M96.48,150.7l-.09.06a.24.24,0,0,0-.13-.11.23.23,0,0,0-.16,0l0-.1A.3.3,0,0,1,96.48,150.7Z" style="fill:#a6a6a6"></path><path d="M96.29,150.8a.07.07,0,1,1-.13,0,.07.07,0,0,1,.09-.05A.07.07,0,0,1,96.29,150.8Z" style="fill:#a6a6a6"></path></g><path d="M92.5,149.4a.19.19,0,0,1,.23-.14.19.19,0,0,1,.13.25.2.2,0,0,1-.24.14A.19.19,0,0,1,92.5,149.4Z" style="fill:#a6a6a6"></path><path d="M93.07,149.57a.2.2,0,0,1,.24-.15.2.2,0,0,1,.12.25.19.19,0,0,1-.24.14A.19.19,0,0,1,93.07,149.57Z" style="fill:#a6a6a6"></path><path d="M93.64,149.73a.19.19,0,0,1,.24-.14.19.19,0,0,1,.13.24.19.19,0,1,1-.37-.1Z" style="fill:#a6a6a6"></path><path d="M94.22,149.89a.19.19,0,0,1,.24-.14.2.2,0,0,1,.12.25.2.2,0,0,1-.24.14A.19.19,0,0,1,94.22,149.89Z" style="fill:#a6a6a6"></path><path d="M94.79,150.06a.2.2,0,0,1,.24-.15.19.19,0,0,1,.12.25.18.18,0,0,1-.23.14A.19.19,0,0,1,94.79,150.06Z" style="fill:#a6a6a6"></path><polygon points="116.17 155.84 114.76 155.44 114.57 156.1 115.98 156.5 116.17 155.84" style="fill:#a6a6a6"></polygon><path d="M116.15,156.81l-1.89-.54.33-1.13,1.89.53Zm-1.27-.88.93.26,0-.17-.93-.27Z" style="fill:#fff"></path><polygon points="115.78 155.82 114.82 155.55 114.68 156.04 115.64 156.31 115.78 155.82" style="fill:#a6a6a6"></polygon><polygon points="116.19 156.42 116.06 156.38 116.17 155.99 116.3 156.02 116.19 156.42" style="fill:#a6a6a6"></polygon><path d="M93.94,209.81l-11.5-3.27a.29.29,0,0,0-.35.2.28.28,0,0,0,.18.35l11.5,3.27a.29.29,0,0,0,.35-.2A.28.28,0,0,0,93.94,209.81Z" style="fill:#a6a6a6"></path><path d="M99.81,178.13a2.82,2.82,0,0,1-3.4,2,2.76,2.76,0,0,1-1.77-3.5,2.83,2.83,0,0,1,3.4-2A2.77,2.77,0,0,1,99.81,178.13Z" style="fill:#455a64"></path><path d="M96.92,175.8a.28.28,0,0,0-.33.2.27.27,0,0,0,.17.34.28.28,0,0,0,.16-.54Z" style="fill:#fff"></path><path d="M97.63,176a.27.27,0,0,0-.32.19.26.26,0,0,0,.17.34.27.27,0,0,0,.32-.2A.25.25,0,0,0,97.63,176Z" style="fill:#fff"></path><path d="M98.19,176.74a.27.27,0,0,0,.33-.19.27.27,0,0,0-.17-.34.28.28,0,0,0-.33.2A.27.27,0,0,0,98.19,176.74Z" style="fill:#fff"></path><path d="M96.7,176.55a.27.27,0,0,0-.33.2.26.26,0,0,0,.17.33.28.28,0,0,0,.16-.53Z" style="fill:#fff"></path><path d="M97.41,176.75a.27.27,0,0,0-.32.2.26.26,0,0,0,.17.34.27.27,0,0,0,.32-.2A.26.26,0,0,0,97.41,176.75Z" style="fill:#fff"></path><path d="M98.13,177a.28.28,0,0,0-.16.53.27.27,0,0,0,.33-.2A.26.26,0,0,0,98.13,177Z" style="fill:#fff"></path><path d="M96.48,177.3a.27.27,0,0,0-.33.19.27.27,0,0,0,.17.34.27.27,0,0,0,.33-.2A.25.25,0,0,0,96.48,177.3Z" style="fill:#fff"></path><path d="M97.19,177.5a.27.27,0,0,0-.32.19.26.26,0,1,0,.32-.19Z" style="fill:#fff"></path><path d="M97.91,177.7a.28.28,0,0,0-.33.2.26.26,0,1,0,.5.14A.27.27,0,0,0,97.91,177.7Z" style="fill:#fff"></path><path d="M97,178.24a.28.28,0,0,0-.33.2.27.27,0,0,0,.17.34.28.28,0,0,0,.16-.54Z" style="fill:#fff"></path><path d="M104.76,188.26a2.83,2.83,0,0,1-3.4,2,2.76,2.76,0,0,1-1.77-3.5,2.83,2.83,0,0,1,3.4-2A2.78,2.78,0,0,1,104.76,188.26Z" style="fill:#455a64"></path><path d="M103,186.9a.61.61,0,0,1-.73.43.58.58,0,0,1-.38-.75.61.61,0,0,1,.73-.44A.6.6,0,0,1,103,186.9Z" style="fill:#fff"></path><path d="M102.88,188.65l-.07.25a1.68,1.68,0,0,1-.59.08,1.78,1.78,0,0,1-1.33-.63l.08-.24a1,1,0,0,1,1.26-.76A1,1,0,0,1,102.88,188.65Z" style="fill:#fff"></path><path d="M92.5,176.05a2.82,2.82,0,0,1-3.4,2,2.76,2.76,0,0,1-1.77-3.5,2.82,2.82,0,0,1,3.4-2A2.77,2.77,0,0,1,92.5,176.05Z" style="fill:#455a64"></path><path d="M89.46,176.86a.06.06,0,0,1,0-.08l.22-.74a.06.06,0,0,1,.07,0s.05,0,0,.08l-.21.73A.07.07,0,0,1,89.46,176.86Z" style="fill:#fff"></path><path d="M89.84,177l-.76-.22a.06.06,0,0,1,0-.08.07.07,0,0,1,.08,0l.75.21a.07.07,0,0,1,0,.08S89.87,177,89.84,177Z" style="fill:#fff"></path><path d="M90.7,174.42l-.31,1.07a.54.54,0,0,1-.64.39.51.51,0,0,1-.35-.42.49.49,0,0,1,0-.24l.31-1.07a.52.52,0,0,1,.64-.38.49.49,0,0,1,.3.25.6.6,0,0,1,0,.38Z" style="fill:#fff"></path><path d="M89.67,176.12a.66.66,0,0,1-.42-.35.78.78,0,0,1-.06-.6l.14-.45s0-.06.07-.05,0,0,0,.08l-.13.45a.7.7,0,0,0,0,.51.54.54,0,0,0,.38.29.65.65,0,0,0,.75-.49l.13-.43a.06.06,0,0,1,.07,0s0,0,0,.08l-.12.43a.79.79,0,0,1-.9.58Z" style="fill:#fff"></path><path d="M97.44,186.18a2.82,2.82,0,0,1-3.39,2,2.76,2.76,0,0,1-1.77-3.5,2.82,2.82,0,0,1,3.39-2A2.76,2.76,0,0,1,97.44,186.18Z" style="fill:#455a64"></path><path d="M96.47,185.53l-.21.7a.18.18,0,0,1-.28.12l-.27-.16-.14-.08.25-.84h.48A.2.2,0,0,1,96.47,185.53Z" style="fill:#fff"></path><path d="M95.69,185.14l-.29,1a.36.36,0,0,1-.44.26l-1.14-.32a.35.35,0,0,1-.22-.45l.29-1a.37.37,0,0,1,.44-.27l1.14.33A.35.35,0,0,1,95.69,185.14Z" style="fill:#fff"></path><path d="M90.13,184.1a2.83,2.83,0,0,1-3.4,2,2.77,2.77,0,0,1-1.77-3.5,2.83,2.83,0,0,1,3.4-2A2.76,2.76,0,0,1,90.13,184.1Z" style="fill:#455a64"></path><path d="M88.58,183.48l-.83-.23.26-.89a.16.16,0,0,0-.1-.21.17.17,0,0,0-.21.12l-.26.89-.83-.24a.18.18,0,0,0-.21.13.18.18,0,0,0,.11.21l.83.23-.26.89a.16.16,0,1,0,.31.09l.26-.89.83.24a.18.18,0,0,0,.21-.12A.17.17,0,0,0,88.58,183.48Z" style="fill:#fff"></path><path d="M107.12,180.21a2.83,2.83,0,0,1-3.39,2,2.76,2.76,0,0,1-1.77-3.5,2.82,2.82,0,0,1,3.39-2A2.77,2.77,0,0,1,107.12,180.21Z" style="fill:#455a64"></path><path d="M105.85,179.72a1.62,1.62,0,0,0,0-.2,1.48,1.48,0,0,0,0-.42,1.89,1.89,0,0,0-.09-.34s-.05-.1-.07-.16h0l-.12.07-.06,0a1.48,1.48,0,0,1-.56,1.91l0,.07.06.13h0l.12-.08.21-.19a1.2,1.2,0,0,0,.17-.21,1.35,1.35,0,0,0,.19-.33s0-.08,0-.13A.6.6,0,0,0,105.85,179.72Z" style="fill:#fff"></path><path d="M105.45,179.55a1.11,1.11,0,0,0-.12-.72l-.19.11a.92.92,0,0,1,.06.71,1,1,0,0,1-.43.57l.1.2A1.24,1.24,0,0,0,105.45,179.55Z" style="fill:#fff"></path><path d="M105,179.06l-.19.11a.45.45,0,0,1,0,.36.52.52,0,0,1-.22.3l.1.19A.74.74,0,0,0,105,179.06Z" style="fill:#fff"></path><polygon points="103.56 179.67 103.13 179.54 103.39 178.66 103.82 178.78 103.56 179.67" style="fill:#fff"></polygon><polygon points="103.82 178.78 104.71 178.65 104.24 180.25 103.56 179.67 103.82 178.78" style="fill:#fff"></polygon><path d="M94,199.67a3.33,3.33,0,0,1-4,2.4,3.26,3.26,0,0,1-2.09-4.13,3.32,3.32,0,0,1,4-2.4A3.26,3.26,0,0,1,94,199.67Z" style="fill:#720455"></path><path d="M92.66,199.31a.85.85,0,0,0,0-.16,1,1,0,0,0,0-.17l-.07-.15-.11-.15a1.79,1.79,0,0,0-.53-.42,3.93,3.93,0,0,0-1.5-.43,2,2,0,0,0-.68.08l-.17.07-.15.09-.08.07a.5.5,0,0,0-.13.19h0l1,.27s0,0,0,0a.35.35,0,0,1,.34-.11,6.46,6.46,0,0,1,.86.24.35.35,0,0,1,.23.27s0,0,0,0l.95.27Z" style="fill:#fff"></path><path d="M89.14,198.55v0c0,.12-.07.24-.1.36a.12.12,0,0,0,.08.17l.73.2c.08,0,.13,0,.16-.1l.09-.3,0-.08Z" style="fill:#fff"></path><path d="M92.59,199.52l-1-.27-.12.39a.11.11,0,0,0,.08.16l.73.21a.12.12,0,0,0,.16-.1c0-.12.07-.24.11-.36Z" style="fill:#fff"></path><path d="M96.06,168.77a.78.78,0,0,1,.94-.56.72.72,0,0,1,.4.3.13.13,0,0,1,0,.17.11.11,0,0,1-.16,0,.5.5,0,0,0-.28-.21.55.55,0,0,0-.4.05.59.59,0,0,0-.25.33.58.58,0,0,0,0,.41.59.59,0,0,0,.31.25.52.52,0,0,0,.35,0,.12.12,0,0,1,.15.07.13.13,0,0,1-.07.16.71.71,0,0,1-.5,0A.76.76,0,0,1,96.06,168.77Z" style="fill:#263238"></path><path d="M97.64,169.91a.12.12,0,0,1-.15.08.09.09,0,0,1-.07-.11v0l.36-1.24a.13.13,0,0,1,.15-.09.11.11,0,0,1,.07.15l-.1.37a.41.41,0,0,1,.22,0,.47.47,0,0,1,.3.59l-.14.47a.13.13,0,0,1-.15.09.11.11,0,0,1-.07-.15l.14-.47a.22.22,0,0,0-.15-.29.23.23,0,0,0-.27.17Z" style="fill:#263238"></path><path d="M99.65,170l-.12.41a.13.13,0,0,1-.14.09.12.12,0,0,1-.07-.12.46.46,0,0,1-.58-.24.6.6,0,0,1,0-.4.58.58,0,0,1,.24-.34.46.46,0,0,1,.38-.06.4.4,0,0,1,.23.17.13.13,0,0,1,.13-.07.11.11,0,0,1,.07.15Zm-.21-.06a.33.33,0,0,0,0-.24.25.25,0,0,0-.36-.1.3.3,0,0,0-.14.2.3.3,0,0,0,0,.23.25.25,0,0,0,.16.14.24.24,0,0,0,.2,0A.3.3,0,0,0,99.44,170Z" style="fill:#263238"></path><path d="M100.76,169.91a.1.1,0,0,1-.13.08.28.28,0,0,0-.13,0,.36.36,0,0,0-.12.08.49.49,0,0,0-.13.15l-.12.4a.11.11,0,0,1-.14.08.1.1,0,0,1-.07-.14l.24-.83a.12.12,0,0,1,.14-.08.12.12,0,0,1,.07.14v0l0,0a.41.41,0,0,1,.27,0A.1.1,0,0,1,100.76,169.91Z" style="fill:#263238"></path><path d="M101.3,169.48a.13.13,0,0,1,.08.15l-.37,1.24a.11.11,0,0,1-.14.08.12.12,0,0,1-.08-.14l.37-1.24A.12.12,0,0,1,101.3,169.48Z" style="fill:#263238"></path><path d="M101.83,169.81a.11.11,0,0,1-.14.08.12.12,0,0,1-.07-.15l0,0a.11.11,0,0,1,.14-.08.1.1,0,0,1,.07.14Zm-.11.38-.24.82a.11.11,0,0,1-.14.08.11.11,0,0,1-.07-.14l.24-.82a.11.11,0,0,1,.14-.09A.11.11,0,0,1,101.72,170.19Z" style="fill:#263238"></path><path d="M101.87,170.67a.54.54,0,0,1,.64-.39.51.51,0,0,1,.33.62h0v0a.1.1,0,0,1-.12.06l-.63-.18a.45.45,0,0,0,0,.16.3.3,0,0,0,.38.15.12.12,0,0,1,.15,0,.09.09,0,0,1,0,.13.48.48,0,0,1-.39,0A.52.52,0,0,1,101.87,170.67Zm.25,0,.55.16a.33.33,0,0,0-.22-.31A.29.29,0,0,0,102.12,170.63Z" style="fill:#263238"></path><path d="M100.23,158.1a.51.51,0,0,1,.59-.35.44.44,0,0,1,.25.19.07.07,0,0,1,0,.1.07.07,0,0,1-.1,0,.31.31,0,0,0-.17-.13.35.35,0,0,0-.25,0,.42.42,0,0,0-.16.21.35.35,0,0,0,0,.25.3.3,0,0,0,.41.14.07.07,0,0,1,.09,0,.09.09,0,0,1,0,.1.4.4,0,0,1-.32,0A.47.47,0,0,1,100.23,158.1Z" style="fill:#c7c7c7"></path><path d="M101.67,158.66l-.07.26a.07.07,0,0,1-.09.05.06.06,0,0,1,0-.07.37.37,0,0,1-.18,0,.26.26,0,0,1-.18-.16.35.35,0,0,1,0-.25.41.41,0,0,1,.15-.21.34.34,0,0,1,.24,0,.26.26,0,0,1,.14.11.07.07,0,0,1,.08,0,.07.07,0,0,1,0,.09Zm-.13,0a.19.19,0,0,0,0-.15.15.15,0,0,0-.1-.09.19.19,0,0,0-.13,0,.25.25,0,0,0-.09.13.22.22,0,0,0,0,.14.18.18,0,0,0,.1.09.17.17,0,0,0,.21-.14Z" style="fill:#c7c7c7"></path><path d="M102.18,158.17a.07.07,0,0,1,0,.09L102,159a.07.07,0,0,1-.14,0l.23-.77A.07.07,0,0,1,102.18,158.17Z" style="fill:#c7c7c7"></path><path d="M102.48,158.25a.09.09,0,0,1,0,.1l-.23.77a.07.07,0,0,1-.09,0,.08.08,0,0,1,0-.09l.22-.77S102.45,158.24,102.48,158.25Z" style="fill:#c7c7c7"></path><path d="M102.81,158.46a.07.07,0,0,1-.08,0,.07.07,0,0,1,0-.09v0a.07.07,0,0,1,.09,0s0,0,0,.09Zm-.06.23-.15.51a.08.08,0,0,1-.09.05.07.07,0,0,1-.05-.09l.15-.51a.08.08,0,0,1,.09-.05A.07.07,0,0,1,102.75,158.69Z" style="fill:#c7c7c7"></path><path d="M103.41,159.09l-.1.32a.06.06,0,0,1-.08.05.07.07,0,0,1,0-.09l.09-.31a.14.14,0,0,0-.09-.17.13.13,0,0,0-.16.1l-.09.31h0a.07.07,0,0,1-.08,0,.07.07,0,0,1,0-.09l.1-.31.06-.2a.06.06,0,0,1,.08-.05.05.05,0,0,1,0,.05h.14A.28.28,0,0,1,103.41,159.09Z" style="fill:#c7c7c7"></path><path d="M104.17,159.38l-.07.24a.31.31,0,0,1-.38.23.24.24,0,0,1-.12-.07.07.07,0,0,1,0-.1.06.06,0,0,1,.09,0l.07,0a.18.18,0,0,0,.2-.1.23.23,0,0,1-.18,0,.25.25,0,0,1-.17-.16.31.31,0,0,1,0-.25.36.36,0,0,1,.15-.21.34.34,0,0,1,.24,0,.3.3,0,0,1,.14.1.08.08,0,0,1,.09,0,.08.08,0,0,1,0,.09l-.08.26Zm-.13,0a.26.26,0,0,0,0-.15.28.28,0,0,0-.1-.09.15.15,0,0,0-.13,0,.21.21,0,0,0-.08.26.13.13,0,0,0,.09.09.18.18,0,0,0,.14,0A.21.21,0,0,0,104,159.34Z" style="fill:#c7c7c7"></path><path d="M104.47,159.61a.1.1,0,0,1-.06.19.09.09,0,0,1-.06-.12A.11.11,0,0,1,104.47,159.61Z" style="fill:#c7c7c7"></path><path d="M104.75,159.69a.1.1,0,0,1-.06.19.09.09,0,0,1-.06-.12A.11.11,0,0,1,104.75,159.69Z" style="fill:#c7c7c7"></path><path d="M105,159.77a.1.1,0,0,1-.06.19s-.07-.06-.06-.12A.11.11,0,0,1,105,159.77Z" style="fill:#c7c7c7"></path><path d="M102.05,167.85a3.49,3.49,0,0,1-3.74-1.06,4,4,0,0,1-.9-2.79,4,4,0,0,1,4-3.87,3.68,3.68,0,0,1,3.48,4A4.13,4.13,0,0,1,102.05,167.85Z" style="fill:#c7c7c7"></path><path d="M102.35,164a1.19,1.19,0,0,1-1.43.85,1.16,1.16,0,0,1-.74-1.47,1.18,1.18,0,0,1,1.42-.85A1.17,1.17,0,0,1,102.35,164Z" style="fill:#fff"></path><path d="M102.19,167.37l-.14.48a3.49,3.49,0,0,1-3.74-1.06l.14-.48a2,2,0,0,1,2.46-1.47A2,2,0,0,1,102.19,167.37Z" style="fill:#fff"></path><path d="M104.73,230s10.75-10.6,14.45-16.29,9.65-32,4-33.6C116,178,109.56,192.49,107.34,200c0,0-13.32.52-21.74,12.12C78.75,221.55,104.73,230,104.73,230Z" style="fill:#eb9481"></path><path d="M87.12,272.08a40.72,40.72,0,0,1-2.4,7.63,74.6,74.6,0,0,1-3.45,7.22,57.59,57.59,0,0,1-4.3,6.76,25.17,25.17,0,0,1-5.61,5.72A47.19,47.19,0,0,0,76,293c1.39-2.23,2.7-4.51,4-6.82s2.49-4.64,3.7-7S86,274.51,87.12,272.08Z" style="fill:#263238"></path><path d="M83.12,366.15l6.77-49.61s-9.71-15.12-5.79-29.81c4.29-16.1,38.7-54.1,41.46-56.14,11.09-8.2,21.89-9.47,30.81-3.42C185,246.58,203.45,365.11,205.76,380.7Z" style="fill:#720455"></path><path d="M113,315.45a120.66,120.66,0,0,1,17.07,4.94c2.75,1.06,5.43,2.24,8.1,3.49,1.33.62,2.67,1.19,4,1.76A18.29,18.29,0,0,0,146.6,327a.11.11,0,0,1,0,.21,31.44,31.44,0,0,1-4.31-.59,29.77,29.77,0,0,1-4-1.27c-2.8-1.05-5.55-2.23-8.34-3.31-5.62-2.18-11.24-4.36-17-6.13C112.62,315.85,112.75,315.39,113,315.45Z" style="fill:#263238"></path><path d="M97.91,318.94a130.11,130.11,0,0,1,14.63,1c2.43.32,4.82.77,7.21,1.3,1.14.24,2.28.51,3.41.8s2.45.79,3.7,1.08c.14,0,.11.24,0,.21-1.19-.24-2.42-.28-3.63-.46l-3.61-.52c-2.42-.35-4.83-.67-7.25-1-4.83-.74-9.64-1.42-14.49-2C97.6,319.3,97.66,318.93,97.91,318.94Z" style="fill:#263238"></path><path d="M170.61,243.14c27.74,45.52,55.3,134,43.06,147.79-13.64,15.32-53.45-49.23-51.26-51.44,1.85-1.89-6.08-53.63-11.55-91.16S163.75,231.88,170.61,243.14Z" style="fill:#eb9481"></path><path d="M204.82,297.92,151.21,296s-4.93-39.4-3.07-60.28c1-11.7,7.83-10.72,14.92-2.83C187.9,260.47,204.82,297.92,204.82,297.92Z" style="fill:#720455"></path><path d="M153.38,287.61c8.27-.38,30.74-.79,45.38.86.09,0,.09.35,0,.35-12.38.47-37.1-.37-45.38-.7C153.23,288.11,153.23,287.62,153.38,287.61Z" style="fill:#263238"></path><path d="M157.74,296.23q-3.26-.37-6.52-.63l.39.36c-.31-6-.81-11.91-1.44-17.84s-1.39-11.84-2.44-17.74c.11,6,.53,11.93,1,17.88s1.19,11.87,2,17.78l.05.36h.33C153.37,296.39,155.56,296.33,157.74,296.23Z" style="fill:#263238"></path><path d="M148.73,272.26a16.4,16.4,0,0,0-1-3.64,24.15,24.15,0,0,0-1.71-3.41,7.19,7.19,0,0,0,.23,1.91,11.56,11.56,0,0,0,.58,1.81A12.22,12.22,0,0,0,148.73,272.26Z" style="fill:#263238"></path><path d="M152.8,232.27c-.58,2.48-12.41,18.59-23.74,18-3.69-.18-3.6-20.39-3.6-20.39l-.34-1.49-4.66-20.9L145,191.8l3.55-2.09s.9,5.8,1.94,13c.05.34.11.67.15,1s.15.79.19,1.18c.17,1.08.34,2.18.49,3.28.11.84.23,1.65.32,2.54s.2,1.74.31,2.63C152.83,222.16,153,231.22,152.8,232.27Z" style="fill:#eb9481"></path><path d="M150.47,202.75a42.9,42.9,0,0,1-25.35,25.69l-4.66-20.9L145,191.8l3.55-2.09S149.43,195.51,150.47,202.75Z" style="fill:#263238"></path><path d="M96.55,167.44c-10.76,36,9.57,46.53,17.33,48.84,7,2.1,31.29,8.35,45.7-26.35s1.09-51.1-14.76-56.76S107.3,131.43,96.55,167.44Z" style="fill:#eb9481"></path><path d="M154.71,192.78c-7.45-2.66-1.93-19.91-1.93-19.91s-11.83-6.7-14.12-17.09c0,0,1,8.64,4.85,13.41.66.8-24.13-10.6-19.81-31.12,0,0-10.43,18.14-23.5,18.1-.63,0,7.77-17.11,13-20a39.85,39.85,0,0,1,9.51-3.82A38.85,38.85,0,0,1,152,134.64c15,7.71,19.63,27.83,18.5,35.05C168.27,183.88,158.24,194,154.71,192.78Z" style="fill:#263238"></path><path d="M142.55,169.33c-13.79-5.41-21.87-18.18-18.14-32.9a.33.33,0,0,0-.62-.22c-6.87,13.88,5.18,29.91,18.8,33.41C142.92,169.71,142.87,169.46,142.55,169.33Z" style="fill:#263238"></path><path d="M155,192c-6.26-6.5-4.85-14.54-2.77-22.49.06-.23-.33-.37-.41-.14-2.72,7.56-4.52,17.35,2.68,23.18A.37.37,0,0,0,155,192Z" style="fill:#263238"></path><path d="M124.58,135.06a.08.08,0,0,0-.14-.05C120,142.46,115,155.88,104,154.39a.23.23,0,0,0-.09.45C114.35,157.2,122.83,143.74,124.58,135.06Z" style="fill:#263238"></path><path d="M155.19,172.74l3.66,8.17,12-8.46-1.7-3.63Zm3.21,1.61,9.26-3.15.38.85-8.3,5.16Z" style="fill:#720455"></path><path d="M154.37,160.82l.31,9,14.3-3.32-.21-4Zm2.36,2.7,9.76.57,0,.93-9.62,1.65Z" style="fill:#720455"></path><path d="M102.91,163.17a24.6,24.6,0,0,0,2.57.15,4.19,4.19,0,0,0,2.66-.34,1.33,1.33,0,0,0,.42-1.57,3.3,3.3,0,0,0-2.93-1.6,4.88,4.88,0,0,0-3.38.85A1.42,1.42,0,0,0,102.91,163.17Z" style="fill:#263238"></path><path d="M127.64,169.83a22.59,22.59,0,0,1-2.3-1.17,4.23,4.23,0,0,1-2.11-1.65,1.34,1.34,0,0,1,.43-1.57,3.28,3.28,0,0,1,3.34.12,4.82,4.82,0,0,1,2.48,2.45A1.41,1.41,0,0,1,127.64,169.83Z" style="fill:#263238"></path><path d="M119.52,177.12c0-.09.15.17.12.27-.8,2.42-1.32,5.32.65,6.78.06.05,0,.17-.07.13C117.65,183.12,118.37,179.28,119.52,177.12Z" style="fill:#263238"></path><path d="M122.45,175.22c4,.87,2,8.83-1.74,8S119.09,174.49,122.45,175.22Z" style="fill:#263238"></path><path d="M123.9,176c.58.63,1.06,1.6,1.88,1.9s1.89-.3,2.73-.94c.08-.07.13,0,.11.12-.37,1.53-1.36,2.95-3.05,2.76-1.54-.18-2.27-1.8-2.25-3.43C123.32,176.15,123.67,175.79,123.9,176Z" style="fill:#263238"></path><path d="M106,173.1c0-.1-.22.06-.24.17-.53,2.48-1.56,5.24-4,5.51-.07,0-.1.13,0,.14C104.52,179.22,105.85,175.54,106,173.1Z" style="fill:#263238"></path><path d="M104.39,170c-3.9-1.28-6.18,6.6-2.57,7.79S107.65,171.05,104.39,170Z" style="fill:#263238"></path><path d="M102.59,170c-.74.24-1.58.82-2.33.66s-1.27-1.24-1.59-2.21c0-.1-.11-.06-.15,0-.47,1.49-.43,3.21.93,3.92s2.59-.37,3.39-1.77C103,170.4,102.89,169.92,102.59,170Z" style="fill:#263238"></path><path d="M114.62,197.42c-.72.46-1.48,1.13-2.4,1a6.78,6.78,0,0,1-2.54-1.18.09.09,0,0,0-.14.1,3.44,3.44,0,0,0,2.88,2,2.71,2.71,0,0,0,2.42-1.79C114.91,197.44,114.73,197.35,114.62,197.42Z" style="fill:#263238"></path><path d="M106.19,190.86a10.38,10.38,0,0,0,2.91,4.37,4.66,4.66,0,0,0,2.63,1.07c2.12.15,2.77-1.62,2.92-3.27a10.82,10.82,0,0,0-.08-2.62A13.44,13.44,0,0,1,106.19,190.86Z" style="fill:#263238"></path><path d="M109.1,195.23a4.66,4.66,0,0,0,2.63,1.07c2.12.15,2.77-1.62,2.92-3.27C112.5,192.55,110,193.27,109.1,195.23Z" style="fill:#ff9cbd"></path><path d="M106.74,185.78s-1.49,3.53-2,5.26c0,.16.36.35.93.55,0,0,0,0,.07,0a8.53,8.53,0,0,0,8.82-.93c.16-.14,0-.37-.2-.31a12.87,12.87,0,0,1-8.09.14c0-.52,2.76-6,2.49-6.06a15.66,15.66,0,0,0-4.17-.17c2.9-7.45,7-14.37,9.73-21.83a.24.24,0,0,0-.42-.23c-4.77,6.95-8.29,15.45-11.48,23.07C102.06,186.23,106,185.89,106.74,185.78Z" style="fill:#263238"></path><path d="M120.24,190.3A11.91,11.91,0,0,1,114,174.68h0a11.9,11.9,0,1,1,9.1,16.44A11.77,11.77,0,0,1,120.24,190.3Zm-4.8-15A10.31,10.31,0,1,0,129,169.89a10.11,10.11,0,0,0-2.46-.71A10.32,10.32,0,0,0,115.44,175.31Z" style="fill:#37474f"></path><path d="M96.05,183.49c-4.7-1.31-7.09-7.52-5.33-13.84a14.22,14.22,0,0,1,4.65-7.34,7.41,7.41,0,0,1,12.22,3.41,14.14,14.14,0,0,1,.19,8.68c-1.66,6-6.46,9.95-11,9.25A7,7,0,0,1,96.05,183.49Zm.31-19.93a12.56,12.56,0,0,0-4.11,6.52c-1.52,5.47.37,10.8,4.23,11.87s8.24-2.5,9.77-8a12.61,12.61,0,0,0-.15-7.71A6.34,6.34,0,0,0,102,162.1a4.49,4.49,0,0,0-.59-.13A6.54,6.54,0,0,0,96.36,163.56Z" style="fill:#37474f"></path><path d="M114,176.12l1.31-.9c-1.33-1.95-4.8-5-8.43-2.81l.83,1.35C111,171.77,113.87,175.94,114,176.12Z" style="fill:#37474f"></path><path d="M164.24,193.3l1.55-.33c-.15-.72-1.57-7.13-4.84-8.64-3-1.41-24.13-5.2-25-5.36l-.28,1.56c6,1.08,22.28,4.15,24.64,5.24C162.44,186.77,163.87,191.54,164.24,193.3Z" style="fill:#37474f"></path><path d="M152.33,190.68s10.39-9.82,15-5.88-4.86,19.35-11.44,20.36a6.35,6.35,0,0,1-7.64-5.07Z" style="fill:#eb9481"></path><path d="M164.51,189.15c.1,0,.09.15,0,.17-4.64.85-7.72,4.36-10.15,8.16,1.6-1.32,3.51-1.84,5.33.12.09.11-.05.26-.17.21a3.9,3.9,0,0,0-4.48.46,19.28,19.28,0,0,0-2.72,3c-.28.35-.93,0-.69-.41a.93.93,0,0,1,.05-.1C152.7,195.26,158.53,188.48,164.51,189.15Z" style="fill:#263238"></path><path d="M116.67,217a24.5,24.5,0,0,1-6.48-1.8,26.84,26.84,0,0,1-5.87-3.39,30.2,30.2,0,0,1-2.58-2.22c-.39-.41-.76-.85-1.14-1.27-.18-.21-.38-.41-.56-.64l-.49-.69a21.53,21.53,0,0,1-3.13-6c.62.94,1.06,2,1.74,2.84l.94,1.37c.33.44.7.85,1.05,1.27a28.68,28.68,0,0,0,4.77,4.51,36.89,36.89,0,0,0,5.59,3.49c1,.49,2,.95,3,1.36S115.6,216.7,116.67,217Z" style="fill:#263238"></path><path d="M212.8,392.2c-13.38,6.07-49.25-9-104.13-28.49-7.6-2.7,18.72-50.73,27-48.26,10.4,3.11,43.42,12,46.19,13.39C205.21,340.77,221.89,388.07,212.8,392.2Z" style="fill:#eb9481"></path><path d="M100.66,306.07c3.53.4,3.77-1.45-.72-5.89s-26-18.25-20.58-25.36,35.56,12.8,42.47,20.78,15.28,23.31,15.28,23.31C130.47,316.21,113.75,311.2,100.66,306.07Z" style="fill:#eb9481"></path><path d="M112,365.3C93.58,357,70.15,347.82,57,329.23a11.23,11.23,0,0,1-2.24-7c-6-8.23-4-13.56-4-13.56-3.29-9.39-.42-14.55-.42-14.55s-7-9.74-1.81-14.94c5.8-5.86,14.49,9,24.25,14.2,22.37,12,57.52,22.75,64.32,25.57Z" style="fill:#eb9481"></path><path d="M87.41,322.37c-6.51-3.66-13-7.08-19-11.6-6.57-5-12.05-10.84-17.79-16.68a.2.2,0,0,0-.3.26c8.71,12.22,23,22.83,36.92,28.32C87.59,322.8,87.74,322.55,87.41,322.37Z" style="fill:#263238"></path><path d="M82.14,336.92C76,333,65.25,326.07,51,308.48c-.05-.06-.16,0-.12.07C58.6,321.21,68.92,330.37,82,337.22,82.36,337.43,82.55,337.18,82.14,336.92Z" style="fill:#263238"></path><path d="M79.16,344.69c-10.19-7-15.72-12.78-24.34-22.5,0-.05-.16,0-.11.08,8.64,12.08,13.14,15.48,24.26,22.81C79.35,345.33,79.56,345,79.16,344.69Z" style="fill:#263238"></path><path d="M86.4,273.71a8,8,0,0,0-2.62-.26,7.43,7.43,0,0,0-2.5.52,3.27,3.27,0,0,0-1.78,1.49,4.22,4.22,0,0,0-.49,2.32,10.11,10.11,0,0,0,1.9,4.66c1,1.47,2.07,2.87,3.19,4.28a23.46,23.46,0,0,1-3.83-3.82A9.61,9.61,0,0,1,78,277.83a5.06,5.06,0,0,1,.67-2.84A4,4,0,0,1,81,273.23a7.12,7.12,0,0,1,2.78-.26A6.71,6.71,0,0,1,86.4,273.71Z" style="fill:#263238"></path><path d="M83.46,298.57a69.83,69.83,0,0,1-13.13-6.38,39.82,39.82,0,0,1-5.59-4.76c-1.76-1.67-3.48-3.38-5.31-4.94a20.09,20.09,0,0,0-6-3.8,4.62,4.62,0,0,0-3.23-.09,5.22,5.22,0,0,0-2.39,2.22,8.42,8.42,0,0,0-.5,6.69,21.45,21.45,0,0,0,3.1,6.38l.17.24-.16.26a9.59,9.59,0,0,0-1.2,3.33,14.28,14.28,0,0,0-.14,3.64,19.53,19.53,0,0,0,.66,3.62c.16.59.38,1.17.57,1.76l.68,1.72,0,.1-.05.1a4.72,4.72,0,0,0-.45,1.87,10.51,10.51,0,0,0,.08,2,17.5,17.5,0,0,0,.36,2c.15.66.34,1.31.54,2a19.63,19.63,0,0,1-1.12-3.93,10.17,10.17,0,0,1-.17-2.06,5,5,0,0,1,.42-2.08v.19l-.78-1.72c-.21-.59-.44-1.18-.63-1.78a19.59,19.59,0,0,1-.78-3.71,15.26,15.26,0,0,1,.05-3.82,10.19,10.19,0,0,1,1.24-3.7v.5a22.45,22.45,0,0,1-3.31-6.64A12.09,12.09,0,0,1,46,284a7.69,7.69,0,0,1,1-3.69,8.12,8.12,0,0,1,1.19-1.54,4.76,4.76,0,0,1,1.68-1.1,5.56,5.56,0,0,1,3.9.1,20.91,20.91,0,0,1,6.24,4c1.85,1.61,3.59,3.32,5.3,5.05a38.17,38.17,0,0,0,5.37,4.82A81.85,81.85,0,0,0,83.46,298.57Z" style="fill:#263238"></path><path d="M199.79,346c-1.59-2.31-8-11.57-15.86-16.48-7.37-4.6-19.84-6.24-22.46-7-.14,0-.26.25-.11.29,6.69,2,13.77,3.47,21.62,8.19s15,13,16.64,15.09C199.71,346.26,199.87,346.16,199.79,346Z" style="fill:#263238"></path></g><g id="freepik--Sheets--inject-438"><rect x="76.84" y="393.68" width="75.17" height="60.67" transform="translate(228.86 848.02) rotate(180)" style="fill:#fff"></rect><rect x="48.28" y="393.68" width="28.57" height="60.67" transform="translate(125.12 848.02) rotate(180)" style="fill:#c7c7c7"></rect><polygon points="152.01 424.01 76.84 424.01 135.55 425.57 152.01 424.01" style="fill:#c7c7c7"></polygon><polygon points="76.84 447.02 152.01 447.02 93.31 448.58 76.84 447.02" style="fill:#c7c7c7"></polygon><polygon points="152.01 407.05 104.4 407.05 146.72 408.33 152.01 407.05" style="fill:#c7c7c7"></polygon><polygon points="76.84 438.08 124.46 438.08 82.13 439.36 76.84 438.08" style="fill:#c7c7c7"></polygon><polygon points="133.98 400.3 80.28 400.3 89.23 401.06 133.98 400.3" style="fill:#c7c7c7"></polygon><polygon points="144.71 430.51 91 430.51 99.95 431.28 144.71 430.51" style="fill:#c7c7c7"></polygon><polygon points="111.68 412.83 76.84 412.83 70.62 414.87 111.68 412.83" style="fill:#fff"></polygon><polygon points="161.61 412.83 126.77 412.83 120.55 414.87 161.61 412.83" style="fill:#dbdbdb"></polygon><polygon points="116.91 440.1 151.75 440.1 157.97 442.14 116.91 440.1" style="fill:#dbdbdb"></polygon><polygon points="76.84 433.17 48.87 433.17 42.65 435.21 76.84 433.17" style="fill:#c7c7c7"></polygon><polygon points="67.08 424.01 45.39 424.01 48.28 422.34 67.08 424.01" style="fill:#c7c7c7"></polygon></g><g id="freepik--character-2--inject-438"><path d="M257.1,214.39s-19-10.34-35.84,0-24.89,35.82-22,57.21-14.8,35.5-16.71,51.39,8.67,23.24,12.22,31.57c4.07,9.55-12.22,43.45,29.23,51.31,51.85,9.84,71.68-21.59,66.39-47.57-2.59-12.73-9.85-21.78-9.72-32.07s7.52-18.51,3.67-31.56-9-11.29-11.06-31.79S275.46,217.88,257.1,214.39Z" style="fill:#263238"></path><path d="M224.84,213.9A63.51,63.51,0,0,0,200.33,243a57.86,57.86,0,0,0-4.39,18.6c-.54,8.36.76,16.18-2.39,24.29-5.06,13-15.16,23.82-14.68,38.28A35.51,35.51,0,0,0,185.1,343c4.49,6.53,10.87,11.69,14.62,18.69.15.29.61,0,.46-.25-3.12-6.22-8.19-11-12.41-16.54a36,36,0,0,1-7.66-22.74c.4-13.75,10.36-24.32,15-36.85,2.11-5.68,2.24-11.17,2.05-17.12a61.29,61.29,0,0,1,2.69-20.68c4.24-13.34,13.28-24.87,25.12-33.46C225.09,214,225,213.83,224.84,213.9Z" style="fill:#263238"></path><path d="M203,370.07a0,0,0,1,0,0,.09A0,0,0,1,0,203,370.07Z" style="fill:#263238"></path><path d="M290.21,354.62c-1.31-6.15-4.57-11.73-5.87-17.85-1.57-7.38.32-14.72,1.75-22,2-10.34,1.81-20.09-2.82-29.82-3-6.29-6.64-12.18-8.86-18.8a76.52,76.52,0,0,1-4-22.2c0-.16-.27-.16-.27,0a69.81,69.81,0,0,0,6.94,31.68c2.82,5.81,6.34,11.26,8,17.53,2,7.54,1.2,14.82-.14,22.38-.89,5-2,10.14-1.92,15.27,0,5.34,1.75,10.07,3.66,15a52.21,52.21,0,0,1-.23,39c-.09.22.31.38.41.16A49.63,49.63,0,0,0,290.21,354.62Z" style="fill:#263238"></path><path d="M181.15,321.15c.46-11.32,8.47-19,13.33-28.83,3.67-7.42,6.17-15.34,5-23.51,0-.14-.26-.1-.25,0,.62,11.83-4.42,22.56-11.06,32.46-4.42,6.59-8.08,12.92-8.12,20.85,0,7.76,3.11,14.31,7.6,20.73,3.2,4.58,6.35,8.85,7.7,14.27s1,11,.78,16.51c0,.28.46.28.48,0,.76-8.48.89-16.71-3.44-24.46C187.8,339.68,180.69,332.66,181.15,321.15Z" style="fill:#263238"></path><path d="M292.2,346.58a70.23,70.23,0,0,0-6.61-11c-4.39-6.37-5.13-11.53-3.66-19.1a.15.15,0,0,0-.29-.07c-2.11,6.23-2.61,11.4,1.14,17.14,5.22,8,10.34,15.3,11.42,24.85,1.91,17-7.81,32.78-23.57,41.37-.22.12,0,.42.21.31,13.22-6.42,22.49-18,24.42-31.72A40,40,0,0,0,292.2,346.58Z" style="fill:#263238"></path><path d="M241.29,325.57c2.54,30.6,22.31,97.27,36.13,108.64,8.91,7.33,47.1,15.45,67.11,15.48,8.21,0,14.31-56.25,2-57.05-21.25-1.38-36.28-3.32-41.94-6.25-4.41-2.28-15.47-23.49-45.44-63.92C248,307.43,239.86,308.34,241.29,325.57Z" style="fill:#eb9481"></path><path d="M337.54,448.56c1,.37,15.23,5.63,23.83,7.11,6.42,1.1,25,3.77,26.89-3.17,1.31-4.74-9.42-7.59-17-9.78-4-1.16-9.09-4.6-8.25-7.17,1.48-4.48,11.73-1.3,18.57,1.71,13.23,5.82,31.24,16.95,38.12,9.79,2.6-2.7-1.22-6.67-6.57-10.37,8.46,4.06,17.35,7.18,20.35,4.29,1.73-1.65,1.6-3.63.29-5.76,2.53.52,4.67.12,6-1.64,2.26-3,.56-6.8-2.71-10.56a3.07,3.07,0,0,0,2.17-1.79c4.5-8.91-25.42-29.67-35.09-30.83-28.45-3.47-57.66,2.25-57.66,2.25C336.61,402.57,337.51,448.54,337.54,448.56Z" style="fill:#eb9481"></path><path d="M375.41,418.46a47.37,47.37,0,0,1,19.29,5c7.55,3.85,12.82,8.75,19.33,13.55.17.13,0,.4-.19.27-3.1-2.28-15.84-10.74-19.1-12.62a45.06,45.06,0,0,0-19.34-6.12C375.33,418.57,375.34,418.46,375.41,418.46Z" style="fill:#263238"></path><path d="M379.25,406.12c7.51,1.17,15.2,2.34,22.35,5,7.82,2.93,14.3,8.43,20.66,13.7q5.73,4.75,11.24,9.75c.16.14,0,.41-.19.27q-9.69-8.19-19.88-15.79a59.76,59.76,0,0,0-21-10.15c-4.35-1.12-8.77-1.9-13.19-2.68C379.16,406.24,379.17,406.1,379.25,406.12Z" style="fill:#263238"></path><path d="M385.88,395c7.24.65,13.55,1.2,20.24,4.29,8.86,4.08,17.83,11.64,21,14.32,3.48,3,6.85,6,10.18,9.17.14.13-.08.37-.22.24a237,237,0,0,0-24-19,47.24,47.24,0,0,0-12.95-6.49A84.68,84.68,0,0,0,385.87,395S385.84,395,385.88,395Z" style="fill:#263238"></path><path d="M252,396.45l38.37-37.58s-22.85-32.44-38.26-46.61c-8.64-7.94-14.92-1.33-14.87,9.28C237.43,358.67,252,396.45,252,396.45Z" style="fill:#720455"></path><path d="M252,396.45l38.37-37.58s-22.85-32.44-38.26-46.61c-8.64-7.94-14.92-1.33-14.87,9.28C237.43,358.67,252,396.45,252,396.45Z" style="fill:#720455"></path><path d="M286.7,362.46l-34.69,34s-14.58-37.78-14.76-74.91a17.48,17.48,0,0,1,2.39-9.67Z" style="opacity:0.1"></path><path d="M283.13,354.14c-6.38,5.29-23.27,20.15-33,31.24-.06.07.17.32.24.26,9.47-8,27.19-25.3,33.09-31.13C283.58,354.4,283.25,354,283.13,354.14Z" style="fill:#263238"></path><path d="M149.71,453.54l132-.34-8-49.69s11.41-13.88,9.25-28.93c-2.36-16.49-32.06-58.27-34.56-60.63-10-9.44-20.61-12-30.19-7C185.29,324,149.71,453.54,149.71,453.54Z" style="fill:#720455"></path><path d="M250.87,399.7a120.7,120.7,0,0,0-17.53,2.89c-2.86.73-5.66,1.59-8.46,2.51-1.39.46-2.79.88-4.2,1.28a18.41,18.41,0,0,1-4.52.85.11.11,0,0,0,0,.22,33.22,33.22,0,0,0,4.35-.08,30.68,30.68,0,0,0,4.15-.79c2.9-.71,5.77-1.56,8.67-2.31,5.84-1.5,11.68-3,17.61-4.08C251.22,400.14,251.15,399.67,250.87,399.7Z" style="fill:#263238"></path><path d="M265.46,404.94a130.22,130.22,0,0,0-14.64-.7c-2.45,0-4.88.2-7.31.43-1.17.11-2.33.25-3.49.4s-2.53.49-3.8.64c-.14,0-.14.22,0,.21,1.21-.1,2.44,0,3.65,0l3.65-.1c2.44-.06,4.88-.09,7.32-.17,4.88-.17,9.74-.28,14.63-.28C265.73,405.34,265.71,405,265.46,404.94Z" style="fill:#263238"></path><path d="M202.2,321.1C169.29,363,131.93,441,142.46,456.1c11.74,16.81,58.44-35.89,56.54-38.35-1.62-2.09,12.35-52.53,22.2-89.16S210.33,310.73,202.2,321.1Z" style="fill:#eb9481"></path><path d="M161.78,371.48l53.46,4.41s9.54-38.55,10.15-59.5c.34-11.75-6.51-11.57-14.49-4.58C183,336.28,161.78,371.48,161.78,371.48Z" style="fill:#720455"></path><path d="M214.07,367.3c-8.17-1.36-30.44-4.41-45.16-4.49-.09,0-.13.33,0,.35,12.25,1.92,36.89,4,45.15,4.64C214.16,367.82,214.22,367.33,214.07,367.3Z" style="fill:#263238"></path><path d="M208.72,375.35c2.19,0,4.37,0,6.55.13l-.42.32c1-5.89,2.2-11.73,3.53-17.54s2.78-11.6,4.51-17.34c-.82,5.93-1.93,11.79-3.14,17.63s-2.58,11.66-4.12,17.42l-.09.36-.33,0C213,376,210.88,375.71,208.72,375.35Z" style="fill:#263238"></path><path d="M220.5,352.6a16.84,16.84,0,0,1,1.47-3.49,23.6,23.6,0,0,1,2.1-3.18,7.4,7.4,0,0,1-.45,1.87,12.32,12.32,0,0,1-.8,1.73A12,12,0,0,1,220.5,352.6Z" style="fill:#263238"></path><path d="M221.16,312.41c.29,2.54,10.14,19.92,21.45,20.72,3.69.26,6-19.82,6-19.82l.51-1.44,7.09-20.21L233.7,273.14l-3.28-2.49s-1.57,5.66-3.47,12.72c-.09.33-.18.66-.27,1s-.23.77-.32,1.14c-.3,1.05-.6,2.13-.87,3.21-.21.82-.42,1.61-.62,2.48s-.4,1.71-.62,2.58C222.32,302.37,221.06,311.34,221.16,312.41Z" style="fill:#eb9481"></path><path d="M227,283.37a43,43,0,0,0,22.15,28.5l7.09-20.21L233.7,273.14l-3.28-2.49S228.85,276.31,227,283.37Z" style="fill:#263238"></path><path d="M287,264.72c-3.95,37.38-26.76,39.25-34.81,38.4-7.31-.78-32.1-4.35-32-41.93s18.68-47.57,35.49-46.68S291,227.35,287,264.72Z" style="fill:#eb9481"></path><path d="M281,286.6c1-2.74,2-5.44,2.77-8.22a80.8,80.8,0,0,0,1.93-8.42c.5-2.83.89-5.69,1.16-8.56s.44-5.77.65-8.67c.1,1.45.17,2.9.2,4.36s0,2.91-.08,4.36a65,65,0,0,1-1,8.69,54.84,54.84,0,0,1-2.18,8.47c-.49,1.38-1,2.74-1.59,4.08S281.69,285.31,281,286.6Z" style="fill:#263238"></path><path d="M223.57,265.7c7.89.42,9.44-17.63,9.44-17.63s13.5-1.62,19.62-10.33c0,0-4.21,7.61-9.65,10.5-.91.49,26.35-.48,30.28-21.08,0,0,2.63,20.76,14.71,25.76.58.24-.58-18.78-4.27-23.43a44,44,0,0,0-35.23-16.4c-16.8,1.34-28.84,18.12-30.58,25.22C214.48,252.26,219.82,265.5,223.57,265.7Z" style="fill:#263238"></path><path d="M243.82,248.74c14.81.32,27.19-8.35,29.41-23.37a.34.34,0,0,1,.66,0c1,15.45-16.31,25.6-30.23,23.59C243.33,249,243.47,248.74,243.82,248.74Z" style="fill:#263238"></path><path d="M223.66,264.86c8.27-3.59,10.07-11.55,11.21-19.69,0-.24.45-.22.44,0-.41,8-2.52,17.75-11.41,20.35A.37.37,0,0,1,223.66,264.86Z" style="fill:#263238"></path><path d="M273.6,224.05a.08.08,0,0,1,.15,0c1.24,8.58.67,22.89,11.36,25.74a.22.22,0,0,1-.09.44C274.51,248.42,271.88,232.73,273.6,224.05Z" style="fill:#263238"></path><path d="M219.47,238l-3,2.7,7.81,12.43,6.53-6.13Zm5.45,11.37-5.67-7.95.68-.65,7.33,6.48Z" style="fill:#720455"></path><path d="M222.27,232.29l-1.73,3.62,11.91,8.56,3.74-8.13Zm9.33,8.47-8.24-5.22.38-.85,9.23,3.23Z" style="fill:#720455"></path><path d="M282.77,258.33a23.31,23.31,0,0,1-2.43-.85,4.2,4.2,0,0,1-2.32-1.34,1.33,1.33,0,0,1,.21-1.61,3.29,3.29,0,0,1,3.32-.35,4.89,4.89,0,0,1,2.79,2.09A1.41,1.41,0,0,1,282.77,258.33Z" style="fill:#263238"></path><path d="M257.38,255a21.89,21.89,0,0,0,2.57-.2,4.18,4.18,0,0,0,2.59-.71,1.31,1.31,0,0,0,.2-1.6,3.31,3.31,0,0,0-3.12-1.19,4.89,4.89,0,0,0-3.23,1.31A1.41,1.41,0,0,0,257.38,255Z" style="fill:#263238"></path><path d="M262.07,264.81c0-.1-.21.1-.22.2-.19,2.54-.83,5.41-3.2,6-.08,0-.08.14,0,.14C261.48,271.07,262.3,267.24,262.07,264.81Z" style="fill:#263238"></path><path d="M260.09,261.93c-4-.74-5.22,7.38-1.48,8.07S263.48,262.55,260.09,261.93Z" style="fill:#263238"></path><path d="M258.44,262.12c-.78.36-1.59,1.07-2.46,1s-1.63-1-2.16-1.92c0-.09-.13,0-.15.07-.25,1.56.12,3.24,1.75,3.72s2.79-.79,3.4-2.3C258.94,262.44,258.75,262,258.44,262.12Z" style="fill:#263238"></path><path d="M276.14,266.32c0-.09.18.15.16.25-.47,2.5-.58,5.44,1.56,6.63.07,0,0,.16,0,.14C275.1,272.52,275.29,268.61,276.14,266.32Z" style="fill:#263238"></path><path d="M278.79,264c4.09.31,3.15,8.47-.63,8.18S275.36,263.77,278.79,264Z" style="fill:#263238"></path><path d="M280.43,264.77c.59.5,1.14,1.36,1.9,1.5s1.65-.65,2.32-1.43c.06-.08.12,0,.11.11-.13,1.56-.83,3.13-2.37,3.25-1.39.12-2.24-1.33-2.44-2.93C279.91,265,280.19,264.57,280.43,264.77Z" style="fill:#263238"></path><path d="M258.77,285.42c.48.7.93,1.62,1.82,1.87a6.62,6.62,0,0,0,2.8-.11.09.09,0,0,1,.09.15,3.45,3.45,0,0,1-3.43.75,2.7,2.7,0,0,1-1.54-2.59C258.5,285.34,258.7,285.32,258.77,285.42Z" style="fill:#263238"></path><path d="M269.07,282.62a10.33,10.33,0,0,1-4.37,2.91,4.67,4.67,0,0,1-2.84,0c-2-.69-1.92-2.57-1.43-4.14a11.43,11.43,0,0,1,1.09-2.4A13.45,13.45,0,0,0,269.07,282.62Z" style="fill:#263238"></path><path d="M264.7,285.53a4.67,4.67,0,0,1-2.84,0c-2-.69-1.92-2.57-1.43-4.14C262.61,281.75,264.67,283.39,264.7,285.53Z" style="fill:#ff9cbd"></path><path d="M270.53,277.72s0,3.84-.22,5.61c0,.17-.47.19-1.07.14,0,0-.05,0-.07,0a8.52,8.52,0,0,1-7.78-4.25.19.19,0,0,1,.3-.21,12.83,12.83,0,0,0,7.41,3.24c.19-.48-.25-6.57,0-6.55a15.42,15.42,0,0,1,3.91,1.45c.19-8-.89-15.94-.57-23.89a.24.24,0,0,1,.48-.06c1.72,8.26,1.7,17.46,1.7,25.71C274.67,279.94,271.2,278.12,270.53,277.72Z" style="fill:#263238"></path><path d="M253.39,276.35a11.9,11.9,0,1,1,14.73-11.66h0a11.9,11.9,0,0,1-14.73,11.66Zm5.29-21.56a10.15,10.15,0,0,0-2.54-.3,10.32,10.32,0,1,0,2.54.3Z" style="fill:#37474f"></path><path d="M280.5,279.58c-4.42-1.09-7.32-6.6-6.55-12.76a14.1,14.1,0,0,1,3.52-7.94,7.41,7.41,0,0,1,12.59,1.56,14.31,14.31,0,0,1,1.47,8.57c-.81,6.51-5.42,11.31-10.26,10.71A6.53,6.53,0,0,1,280.5,279.58Zm4.1-21.78a3.84,3.84,0,0,0-.59-.11,6.32,6.32,0,0,0-5.38,2.27,12.67,12.67,0,0,0-3.11,7.06c-.7,5.64,2,10.63,6,11.12s7.78-3.69,8.48-9.33a12.67,12.67,0,0,0-1.28-7.6A6.58,6.58,0,0,0,284.6,257.8Z" style="fill:#37474f"></path><path d="M267.56,266l-.87-1.33c2-1.29,6.37-2.79,8.87.65l-1.29.93C272,263.18,267.74,265.9,267.56,266Z" style="fill:#37474f"></path><path d="M214.57,262.51l-1.31-.9c.42-.61,4.2-6,7.8-6.12,3.36-.11,24.27,4.5,25.16,4.7l-.35,1.55c-6-1.33-22.16-4.75-24.75-4.66C218.74,257.17,215.59,261,214.57,262.51Z" style="fill:#37474f"></path><path d="M226.57,264.68s-5.81-13.07-11.59-11.21-3,19.73,2.72,23.2a6.35,6.35,0,0,0,9-1.74Z" style="fill:#eb9481"></path><path d="M215.91,258.57c-.09,0-.14.11-.06.16,4,2.57,5.45,7,6.23,11.44-1-1.84-2.54-3.05-5-1.94-.13.06-.05.26.07.26a3.88,3.88,0,0,1,4,2.15,19,19,0,0,1,1.36,3.81c.13.42.86.35.8-.12a.36.36,0,0,0,0-.1C224.46,268.76,221.69,260.26,215.91,258.57Z" style="fill:#263238"></path><path d="M143.17,457.46c12.58,7.61,55.07,2.65,111.88-10.26,7.86-1.79-10.88-56.26-19.38-54.78-10.69,1.86-51.8,11.39-54.72,12.47C156.34,414,134.64,452.29,143.17,457.46Z" style="fill:#eb9481"></path><path d="M221.16,397.73s3.42-1.26,20.37-10.86c11.73-6.63,44.54-15.31,73.92,8.58,11.26,9.16,9.76,21.06-3.63,13.62-9.43-5.23-15.51-9.67-19.07-10.52,0,0,6.31,15.26,1.21,23.36a177.13,177.13,0,0,1-14.82,20.2,38.27,38.27,0,0,1-4-2.43,20.1,20.1,0,0,1-20.06,7.52Z" style="fill:#eb9481"></path><path d="M253.74,382.33c6.92,1.42,21.53,4.67,32.55,11.5,12.25,7.57,33.8,25.47,28.11,34.46-4.17,6.58-13,.47-13,.47s7.34,9.28,2.27,14.4c-4.61,4.68-11.16-.46-11.16-.46s3.49,6.39-1.83,10c-6.39,4.38-12.65-9.74-23-10.9C265.41,441.58,253.74,382.33,253.74,382.33Z" style="fill:#eb9481"></path><path d="M276.13,405.43c6.29,2.4,19.16,11.53,25.29,23,.14.27,0,.51-.16.3a141.26,141.26,0,0,0-25.2-23.21C276,405.5,276.06,405.4,276.13,405.43Z" style="fill:#263238"></path><path d="M268.84,418c5.21,2.63,18.06,12.62,23.87,24.5.13.26,0,.5-.18.28a150.87,150.87,0,0,0-23.77-24.67A.07.07,0,0,1,268.84,418Z" style="fill:#263238"></path><path d="M292.53,442.8a12.28,12.28,0,0,0,6.55,2.12,6.34,6.34,0,0,0,5.58-3.37,6.58,6.58,0,0,0,.59-3.31,12.71,12.71,0,0,0-.78-3.33,21.67,21.67,0,0,0-3.43-6l-1.16-1.42,1.55,1a16.32,16.32,0,0,0,5.92,2.43,7.29,7.29,0,0,0,3.12-.07,5.47,5.47,0,0,0,2.6-1.55,6.45,6.45,0,0,0,1.51-2.68,7.83,7.83,0,0,0,.13-3.09,16,16,0,0,0-2.39-5.89,28.89,28.89,0,0,0-4.08-5c-1.52-1.57-3.09-3.09-4.68-4.6a121.28,121.28,0,0,0-9.9-8.57l-3.51-2.62,4,1.77a89.73,89.73,0,0,1,9.51,4.88,53.29,53.29,0,0,1,4.47,3,30.37,30.37,0,0,0,4.46,2.72,17.37,17.37,0,0,0,4.89,1.67c1.64.26,3.49.12,4.46-1.19a5,5,0,0,0,.34-4.67,16.13,16.13,0,0,0-2.49-4.52,35.82,35.82,0,0,0-7.64-7.2,76.19,76.19,0,0,0-9-5.62,62.39,62.39,0,0,0-19.94-7,62.45,62.45,0,0,1,20.17,6.57,75.63,75.63,0,0,1,9.12,5.54,36.88,36.88,0,0,1,7.89,7.24,16.81,16.81,0,0,1,2.67,4.73,7.71,7.71,0,0,1,.46,2.75,4.64,4.64,0,0,1-.93,2.73,4.11,4.11,0,0,1-2.47,1.51,8.3,8.3,0,0,1-2.81,0,18.73,18.73,0,0,1-5.15-1.73,32.78,32.78,0,0,1-4.62-2.79,51.38,51.38,0,0,0-4.4-2.9,94.74,94.74,0,0,0-9.42-4.8l.49-.86a120,120,0,0,1,10,8.7c1.59,1.52,3.16,3.05,4.69,4.64a30.39,30.39,0,0,1,4.17,5.2,16.79,16.79,0,0,1,2.49,6.23,8.64,8.64,0,0,1-.2,3.43,7.25,7.25,0,0,1-1.72,3,6.29,6.29,0,0,1-3,1.73,8,8,0,0,1-3.41,0,16.76,16.76,0,0,1-6.14-2.62l.39-.43a21.8,21.8,0,0,1,3.45,6.17,13.24,13.24,0,0,1,.73,3.48,7,7,0,0,1-.7,3.48,6.6,6.6,0,0,1-5.88,3.39A12.44,12.44,0,0,1,292.53,442.8Z" style="fill:#263238"></path><path d="M161.1,419.86c1.91-2.18,7.56-9.09,16.52-13.57,7.81-3.9,18.95-6,24.76-6.69.14,0,.2.15.06.2-5,1.7-15.2,3.87-23.59,7.92A73.55,73.55,0,0,0,161.25,420C161.15,420.08,161,420,161.1,419.86Z" style="fill:#263238"></path></g><g id="freepik--speech-bubbles--inject-438"><path d="M463.29,118.19a36.29,36.29,0,0,1-57.93,29.14l-17.78,4.54,7.4-16.56a36.3,36.3,0,1,1,68.31-17.12Z" style="fill:#fff"></path><path d="M463.29,118.19a36.51,36.51,0,0,1-5.39,19.05,43.14,43.14,0,0,1-2.88,4.1,41,41,0,0,1-3.48,3.62,24.8,24.8,0,0,1-1.89,1.65l-2,1.51c-.67.5-1.41.9-2.12,1.35l-1.07.66c-.36.21-.75.37-1.12.56-.75.37-1.5.75-2.26,1.1l-2.36.88a18,18,0,0,1-2.4.73c-.82.19-1.62.47-2.45.6a36.53,36.53,0,0,1-5,.6,32.62,32.62,0,0,1-5,0,36.53,36.53,0,0,1-9.83-2.18,37,37,0,0,1-8.86-4.79l.3,0-17.76,4.63-.88.22.37-.83,7.36-16.58,0,.43a36,36,0,0,1-4.33-16,36.68,36.68,0,0,1,13.15-29.41,36.49,36.49,0,0,1,14.72-7.41,36.17,36.17,0,0,1,31.24,6.79A36.49,36.49,0,0,1,463.29,118.19Zm0,0a36,36,0,0,0-45.06-34.91,35.63,35.63,0,0,0-14.37,7.44,37.35,37.35,0,0,0-9.65,13,35.92,35.92,0,0,0,1.19,31.4l.12.21-.1.22L388,152.05l-.51-.61,17.8-4.46.17,0,.13.1a35.79,35.79,0,0,0,18.31,7.08,31.85,31.85,0,0,0,5,.07,37.64,37.64,0,0,0,4.95-.54c.82-.11,1.61-.38,2.42-.56a20,20,0,0,0,2.4-.7l2.35-.84c.75-.34,1.5-.71,2.25-1.07.38-.18.76-.34,1.13-.54l1.07-.65c.7-.44,1.45-.82,2.12-1.31l2-1.49a22.66,22.66,0,0,0,1.89-1.64,40.58,40.58,0,0,0,3.48-3.58,41.23,41.23,0,0,0,2.89-4.08A36.49,36.49,0,0,0,463.29,118.19Z" style="fill:#263238"></path><path d="M433.49,94.23l-6.73,23.59v24.52a24.53,24.53,0,0,1,0-49A24.81,24.81,0,0,1,433.49,94.23Z" style="fill:#455a64"></path><path d="M441.28,137.57a24.36,24.36,0,0,1-14.52,4.77V117.82Z" style="fill:#c7c7c7"></path><path d="M451.28,117.82a24.48,24.48,0,0,1-10,19.75l-14.52-19.75,19.07-15.42A24.42,24.42,0,0,1,451.28,117.82Z" style="fill:#37474f"></path><path d="M449,97.87l-19.07,15.41,6.74-23.58A24.54,24.54,0,0,1,449,97.87Z" style="fill:#720455"></path><path d="M291.1,142A36.29,36.29,0,0,1,266,201.82l-10.57,15-5.13-17.4A36.3,36.3,0,1,1,291.1,142Z" style="fill:#fff"></path><path d="M291.1,142a36.49,36.49,0,0,1,8.28,18,39.57,39.57,0,0,1,.48,5,42,42,0,0,1-.3,5,23.15,23.15,0,0,1-.36,2.48l-.54,2.45c-.19.82-.5,1.6-.74,2.4l-.38,1.2c-.14.39-.33.77-.49,1.15-.34.77-.66,1.55-1,2.31l-1.22,2.2a18.08,18.08,0,0,1-1.35,2.12c-.5.67-.92,1.4-1.47,2a35.09,35.09,0,0,1-3.41,3.7,31.27,31.27,0,0,1-3.83,3.26A36.34,36.34,0,0,1,266,202.17l.27-.15-10.5,15-.52.75-.26-.88-5.17-17.38.29.31a36,36,0,0,1-13.67-9.34,36.62,36.62,0,0,1-9.11-30.9,36.76,36.76,0,0,1,18.72-26,37.05,37.05,0,0,1,15.83-4.28A36.51,36.51,0,0,1,291.1,142Zm0,0a36,36,0,0,0-56.93,2.72,35.93,35.93,0,0,0-6.1,15,37.38,37.38,0,0,0,1.09,16.12,35.94,35.94,0,0,0,21.3,23.1l.23.09.06.22,5.09,17.42-.78-.13,10.64-15,.1-.14H266a36.59,36.59,0,0,0,9.7-2,36.09,36.09,0,0,0,8.81-4.55,31.52,31.52,0,0,0,3.83-3.18,36.6,36.6,0,0,0,3.41-3.63c.56-.62,1-1.33,1.48-2a16.58,16.58,0,0,0,1.37-2.08l1.24-2.17c.35-.75.68-1.52,1-2.28.17-.38.36-.75.5-1.14l.4-1.19c.25-.79.57-1.56.76-2.38l.56-2.43a23,23,0,0,0,.37-2.47,39.57,39.57,0,0,0,.32-5,41.5,41.5,0,0,0-.45-5A36.46,36.46,0,0,0,291.1,142Z" style="fill:#263238"></path><rect x="241.73" y="153.45" width="45.03" height="28.56" style="fill:#720455"></rect><g style="opacity:0.1"><path d="M286.75,153.45c-1.81,1.74-3.67,3.41-5.5,5.12s-3.7,3.35-5.56,5-3.89,3.44-5.83,5.14l-.18.17-5.19,4.5-.25.21-.25-.21q-2.6-2.25-5.18-4.51l-.18-.16c-2-1.7-3.91-3.41-5.85-5.15s-3.7-3.32-5.55-5-3.68-3.38-5.5-5.12c1.93,1.5,3.83,3.06,5.74,4.59s3.82,3.11,5.71,4.69c2.11,1.75,4.22,3.53,6.32,5.32h0l4.72,4c1.57-1.34,3.15-2.7,4.72-4l0,0c2.1-1.78,4.2-3.56,6.32-5.32,1.89-1.57,3.79-3.14,5.7-4.68S284.82,155,286.75,153.45Z"></path><path d="M259.57,168.7l-.05.05-.71.6c-1.13,1-2.29,1.87-3.46,2.75-1.44,1.1-2.91,2.14-4.38,3.19s-3,2-4.49,3-3.06,1.92-4.64,2.79c1.36-1.19,2.78-2.31,4.21-3.4s2.91-2.14,4.38-3.18,3-2,4.5-3c1.21-.77,2.44-1.54,3.7-2.26l.87-.49Z"></path><path d="M286.65,181.09c-1.59-.87-3.13-1.82-4.65-2.79s-3-2-4.5-3-2.94-2.09-4.37-3.19c-1.17-.88-2.33-1.79-3.45-2.74l-.72-.61,0-.05.07,0,.88.5c1.25.72,2.48,1.49,3.7,2.26,1.52,1,3,2,4.49,3s2.94,2.09,4.37,3.18S285.28,179.9,286.65,181.09Z"></path></g><circle cx="281.83" cy="153.45" r="7.26" style="fill:#455a64"></circle><path d="M281,155.05v-5.91a.8.8,0,0,1,.8-.8.79.79,0,0,1,.79.8v5.91a.79.79,0,0,1-.79.8A.8.8,0,0,1,281,155.05Zm.8,3.52a.8.8,0,0,1-.8-.8v-.29a.81.81,0,0,1,.8-.81.8.8,0,0,1,.79.81v.29A.79.79,0,0,1,281.83,158.57Z" style="fill:#fff"></path><path d="M36.71,102a36.29,36.29,0,0,0,57.93,29.14l17.78,4.54L105,119.12A36.3,36.3,0,1,0,36.71,102Z" style="fill:#fff"></path><path d="M36.71,102a36.49,36.49,0,0,0,5.47,19,40.08,40.08,0,0,0,2.89,4.08,42.13,42.13,0,0,0,3.48,3.59,22.54,22.54,0,0,0,1.89,1.63l2,1.49c.67.49,1.42.87,2.12,1.32l1.07.64c.37.2.75.36,1.13.55.75.35,1.5.72,2.25,1.06l2.35.84a16.88,16.88,0,0,0,2.4.7c.81.18,1.6.45,2.42.56a34.53,34.53,0,0,0,5,.54,31.85,31.85,0,0,0,5-.07,35.89,35.89,0,0,0,18.31-7.07l.13-.11.17.05,17.8,4.46-.51.6-7.44-16.54-.1-.22.12-.21a35.92,35.92,0,0,0,1.19-31.4,37.44,37.44,0,0,0-9.65-13,35.75,35.75,0,0,0-14.37-7.44,36.3,36.3,0,0,0-16.23-.43,36.87,36.87,0,0,0-14.79,6.8A36.42,36.42,0,0,0,36.71,102Zm0,0A36.5,36.5,0,0,1,50.66,73.34,36.12,36.12,0,0,1,81.9,66.56,36.35,36.35,0,0,1,96.62,74a36.68,36.68,0,0,1,13.15,29.41,36,36,0,0,1-4.33,16l0-.42,7.36,16.57.37.84-.88-.23-17.76-4.62.3-.06a37.44,37.44,0,0,1-8.86,4.8,36.9,36.9,0,0,1-9.83,2.17,31.41,31.41,0,0,1-5,0,35,35,0,0,1-5-.6c-.83-.12-1.63-.4-2.45-.6a16.61,16.61,0,0,1-2.4-.73l-2.36-.88c-.76-.35-1.51-.73-2.26-1.09-.37-.19-.76-.36-1.12-.57l-1.07-.66c-.71-.45-1.45-.84-2.12-1.35l-2-1.51a22.78,22.78,0,0,1-1.89-1.65A41,41,0,0,1,45,125.15a41.9,41.9,0,0,1-2.88-4.1A36.48,36.48,0,0,1,36.71,102Z" style="fill:#263238"></path><path d="M60.39,102a3.63,3.63,0,1,1-3.63-3.63A3.63,3.63,0,0,1,60.39,102Z" style="fill:#263238"></path><path d="M76.62,102A3.63,3.63,0,1,1,73,98.37,3.64,3.64,0,0,1,76.62,102Z" style="fill:#263238"></path><path d="M92.85,102a3.64,3.64,0,1,1-3.63-3.63A3.64,3.64,0,0,1,92.85,102Z" style="fill:#263238"></path></g><g id="freepik--Device--inject-438"><rect x="232.13" y="450.94" width="130.31" height="5.84" style="fill:#455a64"></rect><rect x="296.86" y="450.94" width="65.59" height="5.84" style="fill:#37474f"></rect><polygon points="300.83 456.78 427.83 456.78 444.44 370.52 317.44 370.52 300.83 456.78" style="fill:#37474f"></polygon><polygon points="306 456.78 433 456.78 449.6 370.52 322.61 370.52 306 456.78" style="fill:#455a64"></polygon><path d="M370.07,413.65a7,7,0,0,0,7.06,7.73,8.6,8.6,0,0,0,8.4-7.73,7,7,0,0,0-7-7.73A8.61,8.61,0,0,0,370.07,413.65Z" style="fill:#fff"></path></g></svg>
